%FSLAX45Y45*%
G04 Gerber Fmt 4.5, Leading zero omitted, Abs format (unit mm)*
G04 Created by KiCad (PCBNEW (5.1.2-1)-1) date 2023-02-25 22:47:23*
%MOMM*%
%LPD*%
G04 APERTURE LIST*
%ADD10C,0.050000*%
%ADD11C,0.200000*%
%ADD12C,0.300000*%
G04 APERTURE END LIST*
D10*
X15240000Y5562600D02*
X15240000Y5080000D01*
X8001000Y5562600D02*
X8001000Y5080000D01*
X8001000Y2286000D02*
X8001000Y5080000D01*
X8128000Y2286000D02*
X8001000Y2286000D01*
X15240000Y2286000D02*
X8128000Y2286000D01*
X15240000Y5080000D02*
X15240000Y2286000D01*
X8001000Y5562600D02*
X15240000Y5562600D01*
D11*
X8272800Y5290800D02*
X8592800Y4970800D01*
X8592800Y5290800D02*
X8272800Y4970800D01*
X14622800Y5290800D02*
X14942800Y4970800D01*
X14942800Y5290800D02*
X14622800Y4970800D01*
X8272800Y2827000D02*
X8592800Y2507000D01*
X8592800Y2827000D02*
X8272800Y2507000D01*
X14648200Y2827000D02*
X14968200Y2507000D01*
X14968200Y2827000D02*
X14648200Y2507000D01*
D12*
X8284928Y1817786D02*
X8284928Y2117786D01*
X8356357Y2117786D01*
X8399214Y2103500D01*
X8427786Y2074928D01*
X8442071Y2046357D01*
X8456357Y1989214D01*
X8456357Y1946357D01*
X8442071Y1889214D01*
X8427786Y1860643D01*
X8399214Y1832071D01*
X8356357Y1817786D01*
X8284928Y1817786D01*
X8584928Y1817786D02*
X8584928Y2017786D01*
X8584928Y1960643D02*
X8599214Y1989214D01*
X8613500Y2003500D01*
X8642071Y2017786D01*
X8670643Y2017786D01*
X8770643Y1817786D02*
X8770643Y2017786D01*
X8770643Y2117786D02*
X8756357Y2103500D01*
X8770643Y2089214D01*
X8784928Y2103500D01*
X8770643Y2117786D01*
X8770643Y2089214D01*
X8956357Y1817786D02*
X8927786Y1832071D01*
X8913500Y1860643D01*
X8913500Y2117786D01*
X9113500Y1817786D02*
X9084928Y1832071D01*
X9070643Y1860643D01*
X9070643Y2117786D01*
X9456357Y1817786D02*
X9456357Y2117786D01*
X9556357Y1903500D01*
X9656357Y2117786D01*
X9656357Y1817786D01*
X9927786Y1817786D02*
X9927786Y1974928D01*
X9913500Y2003500D01*
X9884928Y2017786D01*
X9827786Y2017786D01*
X9799214Y2003500D01*
X9927786Y1832071D02*
X9899214Y1817786D01*
X9827786Y1817786D01*
X9799214Y1832071D01*
X9784928Y1860643D01*
X9784928Y1889214D01*
X9799214Y1917786D01*
X9827786Y1932071D01*
X9899214Y1932071D01*
X9927786Y1946357D01*
X10070643Y2017786D02*
X10070643Y1717786D01*
X10070643Y2003500D02*
X10099214Y2017786D01*
X10156357Y2017786D01*
X10184928Y2003500D01*
X10199214Y1989214D01*
X10213500Y1960643D01*
X10213500Y1874928D01*
X10199214Y1846357D01*
X10184928Y1832071D01*
X10156357Y1817786D01*
X10099214Y1817786D01*
X10070643Y1832071D01*
X10342071Y1846357D02*
X10356357Y1832071D01*
X10342071Y1817786D01*
X10327786Y1832071D01*
X10342071Y1846357D01*
X10342071Y1817786D01*
X10342071Y2003500D02*
X10356357Y1989214D01*
X10342071Y1974928D01*
X10327786Y1989214D01*
X10342071Y2003500D01*
X10342071Y1974928D01*
X7678500Y1483500D02*
X7998500Y1163500D01*
X7998500Y1483500D02*
X7678500Y1163500D01*
X8256357Y1487786D02*
X8442071Y1487786D01*
X8342071Y1373500D01*
X8384928Y1373500D01*
X8413500Y1359214D01*
X8427786Y1344928D01*
X8442071Y1316357D01*
X8442071Y1244928D01*
X8427786Y1216357D01*
X8413500Y1202071D01*
X8384928Y1187786D01*
X8299214Y1187786D01*
X8270643Y1202071D01*
X8256357Y1216357D01*
X8570643Y1216357D02*
X8584928Y1202071D01*
X8570643Y1187786D01*
X8556357Y1202071D01*
X8570643Y1216357D01*
X8570643Y1187786D01*
X8699214Y1459214D02*
X8713500Y1473500D01*
X8742071Y1487786D01*
X8813500Y1487786D01*
X8842071Y1473500D01*
X8856357Y1459214D01*
X8870643Y1430643D01*
X8870643Y1402071D01*
X8856357Y1359214D01*
X8684928Y1187786D01*
X8870643Y1187786D01*
X9056357Y1487786D02*
X9084928Y1487786D01*
X9113500Y1473500D01*
X9127786Y1459214D01*
X9142071Y1430643D01*
X9156357Y1373500D01*
X9156357Y1302071D01*
X9142071Y1244928D01*
X9127786Y1216357D01*
X9113500Y1202071D01*
X9084928Y1187786D01*
X9056357Y1187786D01*
X9027786Y1202071D01*
X9013500Y1216357D01*
X8999214Y1244928D01*
X8984928Y1302071D01*
X8984928Y1373500D01*
X8999214Y1430643D01*
X9013500Y1459214D01*
X9027786Y1473500D01*
X9056357Y1487786D01*
X9284928Y1187786D02*
X9284928Y1387786D01*
X9284928Y1359214D02*
X9299214Y1373500D01*
X9327786Y1387786D01*
X9370643Y1387786D01*
X9399214Y1373500D01*
X9413500Y1344928D01*
X9413500Y1187786D01*
X9413500Y1344928D02*
X9427786Y1373500D01*
X9456357Y1387786D01*
X9499214Y1387786D01*
X9527786Y1373500D01*
X9542071Y1344928D01*
X9542071Y1187786D01*
X9684928Y1187786D02*
X9684928Y1387786D01*
X9684928Y1359214D02*
X9699214Y1373500D01*
X9727786Y1387786D01*
X9770643Y1387786D01*
X9799214Y1373500D01*
X9813500Y1344928D01*
X9813500Y1187786D01*
X9813500Y1344928D02*
X9827786Y1373500D01*
X9856357Y1387786D01*
X9899214Y1387786D01*
X9927786Y1373500D01*
X9942071Y1344928D01*
X9942071Y1187786D01*
X10527786Y1502071D02*
X10270643Y1116357D01*
X10913500Y1487786D02*
X10942071Y1487786D01*
X10970643Y1473500D01*
X10984928Y1459214D01*
X10999214Y1430643D01*
X11013500Y1373500D01*
X11013500Y1302071D01*
X10999214Y1244928D01*
X10984928Y1216357D01*
X10970643Y1202071D01*
X10942071Y1187786D01*
X10913500Y1187786D01*
X10884928Y1202071D01*
X10870643Y1216357D01*
X10856357Y1244928D01*
X10842071Y1302071D01*
X10842071Y1373500D01*
X10856357Y1430643D01*
X10870643Y1459214D01*
X10884928Y1473500D01*
X10913500Y1487786D01*
X11142071Y1216357D02*
X11156357Y1202071D01*
X11142071Y1187786D01*
X11127786Y1202071D01*
X11142071Y1216357D01*
X11142071Y1187786D01*
X11442071Y1187786D02*
X11270643Y1187786D01*
X11356357Y1187786D02*
X11356357Y1487786D01*
X11327786Y1444928D01*
X11299214Y1416357D01*
X11270643Y1402071D01*
X11556357Y1459214D02*
X11570643Y1473500D01*
X11599214Y1487786D01*
X11670643Y1487786D01*
X11699214Y1473500D01*
X11713500Y1459214D01*
X11727786Y1430643D01*
X11727786Y1402071D01*
X11713500Y1359214D01*
X11542071Y1187786D01*
X11727786Y1187786D01*
X11984928Y1487786D02*
X11927786Y1487786D01*
X11899214Y1473500D01*
X11884928Y1459214D01*
X11856357Y1416357D01*
X11842071Y1359214D01*
X11842071Y1244928D01*
X11856357Y1216357D01*
X11870643Y1202071D01*
X11899214Y1187786D01*
X11956357Y1187786D01*
X11984928Y1202071D01*
X11999214Y1216357D01*
X12013500Y1244928D01*
X12013500Y1316357D01*
X11999214Y1344928D01*
X11984928Y1359214D01*
X11956357Y1373500D01*
X11899214Y1373500D01*
X11870643Y1359214D01*
X11856357Y1344928D01*
X11842071Y1316357D01*
X12127786Y1487786D02*
X12127786Y1430643D01*
X12242071Y1487786D02*
X12242071Y1430643D01*
X12684928Y1073500D02*
X12670643Y1087786D01*
X12642071Y1130643D01*
X12627786Y1159214D01*
X12613500Y1202071D01*
X12599214Y1273500D01*
X12599214Y1330643D01*
X12613500Y1402071D01*
X12627786Y1444928D01*
X12642071Y1473500D01*
X12670643Y1516357D01*
X12684928Y1530643D01*
X12927786Y1387786D02*
X12927786Y1187786D01*
X12856357Y1502071D02*
X12784928Y1287786D01*
X12970643Y1287786D01*
X13313500Y1187786D02*
X13313500Y1487786D01*
X13442071Y1187786D02*
X13442071Y1344928D01*
X13427786Y1373500D01*
X13399214Y1387786D01*
X13356357Y1387786D01*
X13327786Y1373500D01*
X13313500Y1359214D01*
X13627786Y1187786D02*
X13599214Y1202071D01*
X13584928Y1216357D01*
X13570643Y1244928D01*
X13570643Y1330643D01*
X13584928Y1359214D01*
X13599214Y1373500D01*
X13627786Y1387786D01*
X13670643Y1387786D01*
X13699214Y1373500D01*
X13713500Y1359214D01*
X13727786Y1330643D01*
X13727786Y1244928D01*
X13713500Y1216357D01*
X13699214Y1202071D01*
X13670643Y1187786D01*
X13627786Y1187786D01*
X13899214Y1187786D02*
X13870643Y1202071D01*
X13856357Y1230643D01*
X13856357Y1487786D01*
X14127786Y1202071D02*
X14099214Y1187786D01*
X14042071Y1187786D01*
X14013500Y1202071D01*
X13999214Y1230643D01*
X13999214Y1344928D01*
X14013500Y1373500D01*
X14042071Y1387786D01*
X14099214Y1387786D01*
X14127786Y1373500D01*
X14142071Y1344928D01*
X14142071Y1316357D01*
X13999214Y1287786D01*
X14256357Y1202071D02*
X14284928Y1187786D01*
X14342071Y1187786D01*
X14370643Y1202071D01*
X14384928Y1230643D01*
X14384928Y1244928D01*
X14370643Y1273500D01*
X14342071Y1287786D01*
X14299214Y1287786D01*
X14270643Y1302071D01*
X14256357Y1330643D01*
X14256357Y1344928D01*
X14270643Y1373500D01*
X14299214Y1387786D01*
X14342071Y1387786D01*
X14370643Y1373500D01*
X14484928Y1073500D02*
X14499214Y1087786D01*
X14527786Y1130643D01*
X14542071Y1159214D01*
X14556357Y1202071D01*
X14570643Y1273500D01*
X14570643Y1330643D01*
X14556357Y1402071D01*
X14542071Y1444928D01*
X14527786Y1473500D01*
X14499214Y1516357D01*
X14484928Y1530643D01*
X15027786Y1073500D02*
X15013500Y1087786D01*
X14984928Y1130643D01*
X14970643Y1159214D01*
X14956357Y1202071D01*
X14942071Y1273500D01*
X14942071Y1330643D01*
X14956357Y1402071D01*
X14970643Y1444928D01*
X14984928Y1473500D01*
X15013500Y1516357D01*
X15027786Y1530643D01*
X15142071Y1387786D02*
X15142071Y1187786D01*
X15142071Y1359214D02*
X15156357Y1373500D01*
X15184928Y1387786D01*
X15227786Y1387786D01*
X15256357Y1373500D01*
X15270643Y1344928D01*
X15270643Y1187786D01*
X15456357Y1187786D02*
X15427786Y1202071D01*
X15413500Y1216357D01*
X15399214Y1244928D01*
X15399214Y1330643D01*
X15413500Y1359214D01*
X15427786Y1373500D01*
X15456357Y1387786D01*
X15499214Y1387786D01*
X15527786Y1373500D01*
X15542071Y1359214D01*
X15556357Y1330643D01*
X15556357Y1244928D01*
X15542071Y1216357D01*
X15527786Y1202071D01*
X15499214Y1187786D01*
X15456357Y1187786D01*
X15642071Y1387786D02*
X15756357Y1387786D01*
X15684928Y1487786D02*
X15684928Y1230643D01*
X15699214Y1202071D01*
X15727786Y1187786D01*
X15756357Y1187786D01*
X16084928Y1387786D02*
X16084928Y1087786D01*
X16084928Y1373500D02*
X16113500Y1387786D01*
X16170643Y1387786D01*
X16199214Y1373500D01*
X16213500Y1359214D01*
X16227786Y1330643D01*
X16227786Y1244928D01*
X16213500Y1216357D01*
X16199214Y1202071D01*
X16170643Y1187786D01*
X16113500Y1187786D01*
X16084928Y1202071D01*
X16399214Y1187786D02*
X16370643Y1202071D01*
X16356357Y1230643D01*
X16356357Y1487786D01*
X16642071Y1187786D02*
X16642071Y1344928D01*
X16627786Y1373500D01*
X16599214Y1387786D01*
X16542071Y1387786D01*
X16513500Y1373500D01*
X16642071Y1202071D02*
X16613500Y1187786D01*
X16542071Y1187786D01*
X16513500Y1202071D01*
X16499214Y1230643D01*
X16499214Y1259214D01*
X16513500Y1287786D01*
X16542071Y1302071D01*
X16613500Y1302071D01*
X16642071Y1316357D01*
X16742071Y1387786D02*
X16856357Y1387786D01*
X16784928Y1487786D02*
X16784928Y1230643D01*
X16799214Y1202071D01*
X16827786Y1187786D01*
X16856357Y1187786D01*
X17070643Y1202071D02*
X17042071Y1187786D01*
X16984928Y1187786D01*
X16956357Y1202071D01*
X16942071Y1230643D01*
X16942071Y1344928D01*
X16956357Y1373500D01*
X16984928Y1387786D01*
X17042071Y1387786D01*
X17070643Y1373500D01*
X17084928Y1344928D01*
X17084928Y1316357D01*
X16942071Y1287786D01*
X17342071Y1187786D02*
X17342071Y1487786D01*
X17342071Y1202071D02*
X17313500Y1187786D01*
X17256357Y1187786D01*
X17227786Y1202071D01*
X17213500Y1216357D01*
X17199214Y1244928D01*
X17199214Y1330643D01*
X17213500Y1359214D01*
X17227786Y1373500D01*
X17256357Y1387786D01*
X17313500Y1387786D01*
X17342071Y1373500D01*
X17456357Y1073500D02*
X17470643Y1087786D01*
X17499214Y1130643D01*
X17513500Y1159214D01*
X17527786Y1202071D01*
X17542071Y1273500D01*
X17542071Y1330643D01*
X17527786Y1402071D01*
X17513500Y1444928D01*
X17499214Y1473500D01*
X17470643Y1516357D01*
X17456357Y1530643D01*
M02*
