%TF.GenerationSoftware,KiCad,Pcbnew,(5.1.2-1)-1*%
%TF.CreationDate,2023-02-25T22:44:41-05:00*%
%TF.ProjectId,7seg,37736567-2e6b-4696-9361-645f70636258,rev?*%
%TF.SameCoordinates,Original*%
%TF.FileFunction,Copper,L1,Top*%
%TF.FilePolarity,Positive*%
%FSLAX46Y46*%
G04 Gerber Fmt 4.6, Leading zero omitted, Abs format (unit mm)*
G04 Created by KiCad (PCBNEW (5.1.2-1)-1) date 2023-02-25 22:44:41*
%MOMM*%
%LPD*%
G04 APERTURE LIST*
%ADD10O,1.600000X2.400000*%
%ADD11R,1.600000X2.400000*%
%ADD12O,1.700000X1.700000*%
%ADD13R,1.700000X1.700000*%
%ADD14C,0.800000*%
%ADD15C,0.250000*%
%ADD16C,0.254000*%
G04 APERTURE END LIST*
D10*
X119380000Y43180000D03*
X137160000Y35560000D03*
X121920000Y43180000D03*
X134620000Y35560000D03*
X124460000Y43180000D03*
X132080000Y35560000D03*
X127000000Y43180000D03*
X129540000Y35560000D03*
X129540000Y43180000D03*
X127000000Y35560000D03*
X132080000Y43180000D03*
X124460000Y35560000D03*
X134620000Y43180000D03*
X121920000Y35560000D03*
X137160000Y43180000D03*
D11*
X119380000Y35560000D03*
D10*
X93980000Y43180000D03*
X111760000Y35560000D03*
X96520000Y43180000D03*
X109220000Y35560000D03*
X99060000Y43180000D03*
X106680000Y35560000D03*
X101600000Y43180000D03*
X104140000Y35560000D03*
X104140000Y43180000D03*
X101600000Y35560000D03*
X106680000Y43180000D03*
X99060000Y35560000D03*
X109220000Y43180000D03*
X96520000Y35560000D03*
X111760000Y43180000D03*
D11*
X93980000Y35560000D03*
D12*
X146050000Y35560000D03*
X146050000Y38100000D03*
X146050000Y40640000D03*
X146050000Y43180000D03*
D13*
X146050000Y45720000D03*
D12*
X134620000Y29210000D03*
X132080000Y29210000D03*
X129540000Y29210000D03*
X127000000Y29210000D03*
X124460000Y29210000D03*
X121920000Y29210000D03*
X119380000Y29210000D03*
D13*
X116840000Y29210000D03*
D12*
X109220000Y29210000D03*
X106680000Y29210000D03*
X104140000Y29210000D03*
X101600000Y29210000D03*
X99060000Y29210000D03*
X96520000Y29210000D03*
X93980000Y29210000D03*
D13*
X91440000Y29210000D03*
D12*
X86360000Y34290000D03*
X86360000Y36830000D03*
X86360000Y39370000D03*
X86360000Y41910000D03*
D13*
X86360000Y44450000D03*
D14*
X113538000Y48006000D03*
X91440000Y40640000D03*
X116840000Y40640000D03*
X129540000Y46482000D03*
D15*
X146050000Y43180000D02*
X147320000Y43180000D01*
X109220000Y35560000D02*
X109220000Y29210000D01*
X106680000Y35560000D02*
X106680000Y29210000D01*
X104140000Y35560000D02*
X104140000Y29210000D01*
X101600000Y35560000D02*
X101600000Y29210000D01*
X99060000Y35560000D02*
X99060000Y29210000D01*
X96520000Y35560000D02*
X96520000Y29210000D01*
X93980000Y35560000D02*
X93980000Y29210000D01*
X96520000Y42780000D02*
X94380000Y40640000D01*
X96520000Y43180000D02*
X96520000Y42780000D01*
X94380000Y40640000D02*
X91440000Y40640000D01*
X134620000Y35560000D02*
X134620000Y29210000D01*
X132080000Y35560000D02*
X132080000Y29210000D01*
X129540000Y35560000D02*
X129540000Y29210000D01*
X127000000Y35560000D02*
X127000000Y29210000D01*
X124460000Y35560000D02*
X124460000Y29210000D01*
X121920000Y35560000D02*
X121920000Y29210000D01*
X119380000Y35560000D02*
X119380000Y29210000D01*
X119780000Y40640000D02*
X116840000Y40640000D01*
X121920000Y42780000D02*
X119780000Y40640000D01*
X121920000Y43180000D02*
X121920000Y42780000D01*
X137160000Y42780000D02*
X139300000Y40640000D01*
X137160000Y43180000D02*
X137160000Y42780000D01*
X139300000Y40640000D02*
X146050000Y40640000D01*
X124460000Y42780000D02*
X124460000Y43180000D01*
X121920000Y39370000D02*
X124460000Y41910000D01*
X124460000Y41910000D02*
X124460000Y43180000D01*
X114300000Y39370000D02*
X121920000Y39370000D01*
X111760000Y41910000D02*
X114300000Y39370000D01*
X111760000Y43180000D02*
X111760000Y41910000D01*
X89495999Y35139999D02*
X92202000Y37846000D01*
X103632000Y37846000D02*
X106680000Y40894000D01*
X106680000Y40894000D02*
X106680000Y43180000D01*
X92202000Y37846000D02*
X103632000Y37846000D01*
X87209999Y35139999D02*
X89495999Y35139999D01*
X86360000Y34290000D02*
X87209999Y35139999D01*
X132080000Y43580000D02*
X132080000Y43180000D01*
X107516000Y45466000D02*
X130194000Y45466000D01*
X130194000Y45466000D02*
X132080000Y43580000D01*
X106680000Y44630000D02*
X107516000Y45466000D01*
X106680000Y43180000D02*
X106680000Y44630000D01*
X140462000Y38608000D02*
X143510000Y35560000D01*
X136252000Y38608000D02*
X140462000Y38608000D01*
X143510000Y35560000D02*
X146050000Y35560000D01*
X132080000Y42780000D02*
X136252000Y38608000D01*
X132080000Y43180000D02*
X132080000Y42780000D01*
X104140000Y41730000D02*
X104140000Y43180000D01*
X103632000Y41402000D02*
X103812000Y41402000D01*
X86360000Y36830000D02*
X88138000Y38608000D01*
X100838000Y38608000D02*
X103632000Y41402000D01*
X103812000Y41402000D02*
X104140000Y41730000D01*
X88138000Y38608000D02*
X100838000Y38608000D01*
X104140000Y43580000D02*
X107042000Y46482000D01*
X104140000Y43180000D02*
X104140000Y43580000D01*
X107042000Y46482000D02*
X108204000Y46482000D01*
X108204000Y46482000D02*
X129540000Y46482000D01*
X99060000Y42780000D02*
X99060000Y43180000D01*
X99060000Y40640000D02*
X99060000Y43180000D01*
X97790000Y39370000D02*
X99060000Y40640000D01*
X86360000Y39370000D02*
X97790000Y39370000D01*
D16*
G36*
X151740001Y50832428D02*
G01*
X151740000Y50832418D01*
X151740001Y23520000D01*
X80670000Y23520000D01*
X80670000Y26890128D01*
X82093000Y26890128D01*
X82093000Y26449872D01*
X82178890Y26018075D01*
X82347369Y25611331D01*
X82591962Y25245271D01*
X82903271Y24933962D01*
X83269331Y24689369D01*
X83676075Y24520890D01*
X84107872Y24435000D01*
X84548128Y24435000D01*
X84979925Y24520890D01*
X85386669Y24689369D01*
X85752729Y24933962D01*
X86064038Y25245271D01*
X86308631Y25611331D01*
X86477110Y26018075D01*
X86563000Y26449872D01*
X86563000Y26890128D01*
X145847000Y26890128D01*
X145847000Y26449872D01*
X145932890Y26018075D01*
X146101369Y25611331D01*
X146345962Y25245271D01*
X146657271Y24933962D01*
X147023331Y24689369D01*
X147430075Y24520890D01*
X147861872Y24435000D01*
X148302128Y24435000D01*
X148733925Y24520890D01*
X149140669Y24689369D01*
X149506729Y24933962D01*
X149818038Y25245271D01*
X150062631Y25611331D01*
X150231110Y26018075D01*
X150317000Y26449872D01*
X150317000Y26890128D01*
X150231110Y27321925D01*
X150062631Y27728669D01*
X149818038Y28094729D01*
X149506729Y28406038D01*
X149140669Y28650631D01*
X148733925Y28819110D01*
X148302128Y28905000D01*
X147861872Y28905000D01*
X147430075Y28819110D01*
X147023331Y28650631D01*
X146657271Y28406038D01*
X146345962Y28094729D01*
X146101369Y27728669D01*
X145932890Y27321925D01*
X145847000Y26890128D01*
X86563000Y26890128D01*
X86477110Y27321925D01*
X86308631Y27728669D01*
X86064038Y28094729D01*
X85752729Y28406038D01*
X85386669Y28650631D01*
X84979925Y28819110D01*
X84548128Y28905000D01*
X84107872Y28905000D01*
X83676075Y28819110D01*
X83269331Y28650631D01*
X82903271Y28406038D01*
X82591962Y28094729D01*
X82347369Y27728669D01*
X82178890Y27321925D01*
X82093000Y26890128D01*
X80670000Y26890128D01*
X80670000Y41910000D01*
X84867815Y41910000D01*
X84896487Y41618889D01*
X84981401Y41338966D01*
X85119294Y41080986D01*
X85304866Y40854866D01*
X85530986Y40669294D01*
X85585791Y40640000D01*
X85530986Y40610706D01*
X85304866Y40425134D01*
X85119294Y40199014D01*
X84981401Y39941034D01*
X84896487Y39661111D01*
X84867815Y39370000D01*
X84896487Y39078889D01*
X84981401Y38798966D01*
X85119294Y38540986D01*
X85304866Y38314866D01*
X85530986Y38129294D01*
X85585791Y38100000D01*
X85530986Y38070706D01*
X85304866Y37885134D01*
X85119294Y37659014D01*
X84981401Y37401034D01*
X84896487Y37121111D01*
X84867815Y36830000D01*
X84896487Y36538889D01*
X84981401Y36258966D01*
X85119294Y36000986D01*
X85304866Y35774866D01*
X85530986Y35589294D01*
X85585791Y35560000D01*
X85530986Y35530706D01*
X85304866Y35345134D01*
X85119294Y35119014D01*
X84981401Y34861034D01*
X84896487Y34581111D01*
X84867815Y34290000D01*
X84896487Y33998889D01*
X84981401Y33718966D01*
X85119294Y33460986D01*
X85304866Y33234866D01*
X85530986Y33049294D01*
X85788966Y32911401D01*
X86068889Y32826487D01*
X86287050Y32805000D01*
X86432950Y32805000D01*
X86651111Y32826487D01*
X86931034Y32911401D01*
X87189014Y33049294D01*
X87415134Y33234866D01*
X87600706Y33460986D01*
X87738599Y33718966D01*
X87823513Y33998889D01*
X87852185Y34290000D01*
X87843321Y34379999D01*
X89458677Y34379999D01*
X89495999Y34376323D01*
X89533321Y34379999D01*
X89533332Y34379999D01*
X89644985Y34390996D01*
X89788246Y34434453D01*
X89920275Y34505025D01*
X90036000Y34599998D01*
X90059803Y34629002D01*
X92516802Y37086000D01*
X92634232Y37086000D01*
X92590498Y37004180D01*
X92554188Y36884482D01*
X92541928Y36760000D01*
X92541928Y34360000D01*
X92554188Y34235518D01*
X92590498Y34115820D01*
X92649463Y34005506D01*
X92728815Y33908815D01*
X92825506Y33829463D01*
X92935820Y33770498D01*
X93055518Y33734188D01*
X93180000Y33721928D01*
X93220000Y33721928D01*
X93220001Y30487595D01*
X93150986Y30450706D01*
X92924866Y30265134D01*
X92900393Y30235313D01*
X92879502Y30304180D01*
X92820537Y30414494D01*
X92741185Y30511185D01*
X92644494Y30590537D01*
X92534180Y30649502D01*
X92414482Y30685812D01*
X92290000Y30698072D01*
X90590000Y30698072D01*
X90465518Y30685812D01*
X90345820Y30649502D01*
X90235506Y30590537D01*
X90138815Y30511185D01*
X90059463Y30414494D01*
X90000498Y30304180D01*
X89964188Y30184482D01*
X89951928Y30060000D01*
X89951928Y28360000D01*
X89964188Y28235518D01*
X90000498Y28115820D01*
X90059463Y28005506D01*
X90138815Y27908815D01*
X90235506Y27829463D01*
X90345820Y27770498D01*
X90465518Y27734188D01*
X90590000Y27721928D01*
X92290000Y27721928D01*
X92414482Y27734188D01*
X92534180Y27770498D01*
X92644494Y27829463D01*
X92741185Y27908815D01*
X92820537Y28005506D01*
X92879502Y28115820D01*
X92900393Y28184687D01*
X92924866Y28154866D01*
X93150986Y27969294D01*
X93408966Y27831401D01*
X93688889Y27746487D01*
X93907050Y27725000D01*
X94052950Y27725000D01*
X94271111Y27746487D01*
X94551034Y27831401D01*
X94809014Y27969294D01*
X95035134Y28154866D01*
X95220706Y28380986D01*
X95250000Y28435791D01*
X95279294Y28380986D01*
X95464866Y28154866D01*
X95690986Y27969294D01*
X95948966Y27831401D01*
X96228889Y27746487D01*
X96447050Y27725000D01*
X96592950Y27725000D01*
X96811111Y27746487D01*
X97091034Y27831401D01*
X97349014Y27969294D01*
X97575134Y28154866D01*
X97760706Y28380986D01*
X97790000Y28435791D01*
X97819294Y28380986D01*
X98004866Y28154866D01*
X98230986Y27969294D01*
X98488966Y27831401D01*
X98768889Y27746487D01*
X98987050Y27725000D01*
X99132950Y27725000D01*
X99351111Y27746487D01*
X99631034Y27831401D01*
X99889014Y27969294D01*
X100115134Y28154866D01*
X100300706Y28380986D01*
X100330000Y28435791D01*
X100359294Y28380986D01*
X100544866Y28154866D01*
X100770986Y27969294D01*
X101028966Y27831401D01*
X101308889Y27746487D01*
X101527050Y27725000D01*
X101672950Y27725000D01*
X101891111Y27746487D01*
X102171034Y27831401D01*
X102429014Y27969294D01*
X102655134Y28154866D01*
X102840706Y28380986D01*
X102870000Y28435791D01*
X102899294Y28380986D01*
X103084866Y28154866D01*
X103310986Y27969294D01*
X103568966Y27831401D01*
X103848889Y27746487D01*
X104067050Y27725000D01*
X104212950Y27725000D01*
X104431111Y27746487D01*
X104711034Y27831401D01*
X104969014Y27969294D01*
X105195134Y28154866D01*
X105380706Y28380986D01*
X105410000Y28435791D01*
X105439294Y28380986D01*
X105624866Y28154866D01*
X105850986Y27969294D01*
X106108966Y27831401D01*
X106388889Y27746487D01*
X106607050Y27725000D01*
X106752950Y27725000D01*
X106971111Y27746487D01*
X107251034Y27831401D01*
X107509014Y27969294D01*
X107735134Y28154866D01*
X107920706Y28380986D01*
X107950000Y28435791D01*
X107979294Y28380986D01*
X108164866Y28154866D01*
X108390986Y27969294D01*
X108648966Y27831401D01*
X108928889Y27746487D01*
X109147050Y27725000D01*
X109292950Y27725000D01*
X109511111Y27746487D01*
X109791034Y27831401D01*
X110049014Y27969294D01*
X110275134Y28154866D01*
X110460706Y28380986D01*
X110598599Y28638966D01*
X110683513Y28918889D01*
X110712185Y29210000D01*
X110683513Y29501111D01*
X110598599Y29781034D01*
X110460706Y30039014D01*
X110443484Y30060000D01*
X115351928Y30060000D01*
X115351928Y28360000D01*
X115364188Y28235518D01*
X115400498Y28115820D01*
X115459463Y28005506D01*
X115538815Y27908815D01*
X115635506Y27829463D01*
X115745820Y27770498D01*
X115865518Y27734188D01*
X115990000Y27721928D01*
X117690000Y27721928D01*
X117814482Y27734188D01*
X117934180Y27770498D01*
X118044494Y27829463D01*
X118141185Y27908815D01*
X118220537Y28005506D01*
X118279502Y28115820D01*
X118300393Y28184687D01*
X118324866Y28154866D01*
X118550986Y27969294D01*
X118808966Y27831401D01*
X119088889Y27746487D01*
X119307050Y27725000D01*
X119452950Y27725000D01*
X119671111Y27746487D01*
X119951034Y27831401D01*
X120209014Y27969294D01*
X120435134Y28154866D01*
X120620706Y28380986D01*
X120650000Y28435791D01*
X120679294Y28380986D01*
X120864866Y28154866D01*
X121090986Y27969294D01*
X121348966Y27831401D01*
X121628889Y27746487D01*
X121847050Y27725000D01*
X121992950Y27725000D01*
X122211111Y27746487D01*
X122491034Y27831401D01*
X122749014Y27969294D01*
X122975134Y28154866D01*
X123160706Y28380986D01*
X123190000Y28435791D01*
X123219294Y28380986D01*
X123404866Y28154866D01*
X123630986Y27969294D01*
X123888966Y27831401D01*
X124168889Y27746487D01*
X124387050Y27725000D01*
X124532950Y27725000D01*
X124751111Y27746487D01*
X125031034Y27831401D01*
X125289014Y27969294D01*
X125515134Y28154866D01*
X125700706Y28380986D01*
X125730000Y28435791D01*
X125759294Y28380986D01*
X125944866Y28154866D01*
X126170986Y27969294D01*
X126428966Y27831401D01*
X126708889Y27746487D01*
X126927050Y27725000D01*
X127072950Y27725000D01*
X127291111Y27746487D01*
X127571034Y27831401D01*
X127829014Y27969294D01*
X128055134Y28154866D01*
X128240706Y28380986D01*
X128270000Y28435791D01*
X128299294Y28380986D01*
X128484866Y28154866D01*
X128710986Y27969294D01*
X128968966Y27831401D01*
X129248889Y27746487D01*
X129467050Y27725000D01*
X129612950Y27725000D01*
X129831111Y27746487D01*
X130111034Y27831401D01*
X130369014Y27969294D01*
X130595134Y28154866D01*
X130780706Y28380986D01*
X130810000Y28435791D01*
X130839294Y28380986D01*
X131024866Y28154866D01*
X131250986Y27969294D01*
X131508966Y27831401D01*
X131788889Y27746487D01*
X132007050Y27725000D01*
X132152950Y27725000D01*
X132371111Y27746487D01*
X132651034Y27831401D01*
X132909014Y27969294D01*
X133135134Y28154866D01*
X133320706Y28380986D01*
X133350000Y28435791D01*
X133379294Y28380986D01*
X133564866Y28154866D01*
X133790986Y27969294D01*
X134048966Y27831401D01*
X134328889Y27746487D01*
X134547050Y27725000D01*
X134692950Y27725000D01*
X134911111Y27746487D01*
X135191034Y27831401D01*
X135449014Y27969294D01*
X135675134Y28154866D01*
X135860706Y28380986D01*
X135998599Y28638966D01*
X136083513Y28918889D01*
X136112185Y29210000D01*
X136083513Y29501111D01*
X135998599Y29781034D01*
X135860706Y30039014D01*
X135675134Y30265134D01*
X135449014Y30450706D01*
X135380000Y30487595D01*
X135380000Y33939099D01*
X135421101Y33961068D01*
X135639608Y34140392D01*
X135818932Y34358899D01*
X135890000Y34491858D01*
X135961068Y34358899D01*
X136140393Y34140392D01*
X136358900Y33961068D01*
X136608193Y33827818D01*
X136878692Y33745764D01*
X137160000Y33718057D01*
X137441309Y33745764D01*
X137711808Y33827818D01*
X137961101Y33961068D01*
X138179608Y34140392D01*
X138358932Y34358899D01*
X138492182Y34608192D01*
X138574236Y34878691D01*
X138595000Y35089509D01*
X138595000Y36030492D01*
X138574236Y36241309D01*
X138492182Y36511808D01*
X138358932Y36761101D01*
X138179607Y36979608D01*
X137961100Y37158932D01*
X137711807Y37292182D01*
X137441308Y37374236D01*
X137160000Y37401943D01*
X136878691Y37374236D01*
X136608192Y37292182D01*
X136358899Y37158932D01*
X136140392Y36979607D01*
X135961068Y36761100D01*
X135890000Y36628142D01*
X135818932Y36761101D01*
X135639607Y36979608D01*
X135421100Y37158932D01*
X135171807Y37292182D01*
X134901308Y37374236D01*
X134620000Y37401943D01*
X134338691Y37374236D01*
X134068192Y37292182D01*
X133818899Y37158932D01*
X133600392Y36979607D01*
X133421068Y36761100D01*
X133350000Y36628142D01*
X133278932Y36761101D01*
X133099607Y36979608D01*
X132881100Y37158932D01*
X132631807Y37292182D01*
X132361308Y37374236D01*
X132080000Y37401943D01*
X131798691Y37374236D01*
X131528192Y37292182D01*
X131278899Y37158932D01*
X131060392Y36979607D01*
X130881068Y36761100D01*
X130810000Y36628142D01*
X130738932Y36761101D01*
X130559607Y36979608D01*
X130341100Y37158932D01*
X130091807Y37292182D01*
X129821308Y37374236D01*
X129540000Y37401943D01*
X129258691Y37374236D01*
X128988192Y37292182D01*
X128738899Y37158932D01*
X128520392Y36979607D01*
X128341068Y36761100D01*
X128270000Y36628142D01*
X128198932Y36761101D01*
X128019607Y36979608D01*
X127801100Y37158932D01*
X127551807Y37292182D01*
X127281308Y37374236D01*
X127000000Y37401943D01*
X126718691Y37374236D01*
X126448192Y37292182D01*
X126198899Y37158932D01*
X125980392Y36979607D01*
X125801068Y36761100D01*
X125730000Y36628142D01*
X125658932Y36761101D01*
X125479607Y36979608D01*
X125261100Y37158932D01*
X125011807Y37292182D01*
X124741308Y37374236D01*
X124460000Y37401943D01*
X124178691Y37374236D01*
X123908192Y37292182D01*
X123658899Y37158932D01*
X123440392Y36979607D01*
X123261068Y36761100D01*
X123190000Y36628142D01*
X123118932Y36761101D01*
X122939607Y36979608D01*
X122721100Y37158932D01*
X122471807Y37292182D01*
X122201308Y37374236D01*
X121920000Y37401943D01*
X121638691Y37374236D01*
X121368192Y37292182D01*
X121118899Y37158932D01*
X120900392Y36979607D01*
X120807581Y36866517D01*
X120805812Y36884482D01*
X120769502Y37004180D01*
X120710537Y37114494D01*
X120631185Y37211185D01*
X120534494Y37290537D01*
X120424180Y37349502D01*
X120304482Y37385812D01*
X120180000Y37398072D01*
X118580000Y37398072D01*
X118455518Y37385812D01*
X118335820Y37349502D01*
X118225506Y37290537D01*
X118128815Y37211185D01*
X118049463Y37114494D01*
X117990498Y37004180D01*
X117954188Y36884482D01*
X117941928Y36760000D01*
X117941928Y34360000D01*
X117954188Y34235518D01*
X117990498Y34115820D01*
X118049463Y34005506D01*
X118128815Y33908815D01*
X118225506Y33829463D01*
X118335820Y33770498D01*
X118455518Y33734188D01*
X118580000Y33721928D01*
X118620000Y33721928D01*
X118620001Y30487595D01*
X118550986Y30450706D01*
X118324866Y30265134D01*
X118300393Y30235313D01*
X118279502Y30304180D01*
X118220537Y30414494D01*
X118141185Y30511185D01*
X118044494Y30590537D01*
X117934180Y30649502D01*
X117814482Y30685812D01*
X117690000Y30698072D01*
X115990000Y30698072D01*
X115865518Y30685812D01*
X115745820Y30649502D01*
X115635506Y30590537D01*
X115538815Y30511185D01*
X115459463Y30414494D01*
X115400498Y30304180D01*
X115364188Y30184482D01*
X115351928Y30060000D01*
X110443484Y30060000D01*
X110275134Y30265134D01*
X110049014Y30450706D01*
X109980000Y30487595D01*
X109980000Y33939099D01*
X110021101Y33961068D01*
X110239608Y34140392D01*
X110418932Y34358899D01*
X110490000Y34491858D01*
X110561068Y34358899D01*
X110740393Y34140392D01*
X110958900Y33961068D01*
X111208193Y33827818D01*
X111478692Y33745764D01*
X111760000Y33718057D01*
X112041309Y33745764D01*
X112311808Y33827818D01*
X112561101Y33961068D01*
X112779608Y34140392D01*
X112958932Y34358899D01*
X113092182Y34608192D01*
X113174236Y34878691D01*
X113195000Y35089509D01*
X113195000Y36030492D01*
X113174236Y36241309D01*
X113092182Y36511808D01*
X112958932Y36761101D01*
X112779607Y36979608D01*
X112561100Y37158932D01*
X112311807Y37292182D01*
X112041308Y37374236D01*
X111760000Y37401943D01*
X111478691Y37374236D01*
X111208192Y37292182D01*
X110958899Y37158932D01*
X110740392Y36979607D01*
X110561068Y36761100D01*
X110490000Y36628142D01*
X110418932Y36761101D01*
X110239607Y36979608D01*
X110021100Y37158932D01*
X109771807Y37292182D01*
X109501308Y37374236D01*
X109220000Y37401943D01*
X108938691Y37374236D01*
X108668192Y37292182D01*
X108418899Y37158932D01*
X108200392Y36979607D01*
X108021068Y36761100D01*
X107950000Y36628142D01*
X107878932Y36761101D01*
X107699607Y36979608D01*
X107481100Y37158932D01*
X107231807Y37292182D01*
X106961308Y37374236D01*
X106680000Y37401943D01*
X106398691Y37374236D01*
X106128192Y37292182D01*
X105878899Y37158932D01*
X105660392Y36979607D01*
X105481068Y36761100D01*
X105410000Y36628142D01*
X105338932Y36761101D01*
X105159607Y36979608D01*
X104941100Y37158932D01*
X104691807Y37292182D01*
X104421308Y37374236D01*
X104251739Y37390937D01*
X107191004Y40330202D01*
X107220001Y40353999D01*
X107295904Y40446487D01*
X107314974Y40469723D01*
X107385546Y40601753D01*
X107388262Y40610706D01*
X107429003Y40745014D01*
X107440000Y40856667D01*
X107440000Y40856677D01*
X107443676Y40894000D01*
X107440000Y40931323D01*
X107440000Y41559099D01*
X107481101Y41581068D01*
X107699608Y41760392D01*
X107878932Y41978899D01*
X107947265Y42106741D01*
X108097399Y41877161D01*
X108295105Y41675500D01*
X108528354Y41516285D01*
X108788182Y41405633D01*
X108870961Y41388096D01*
X109093000Y41510085D01*
X109093000Y43053000D01*
X109073000Y43053000D01*
X109073000Y43307000D01*
X109093000Y43307000D01*
X109093000Y43327000D01*
X109347000Y43327000D01*
X109347000Y43307000D01*
X109367000Y43307000D01*
X109367000Y43053000D01*
X109347000Y43053000D01*
X109347000Y41510085D01*
X109569039Y41388096D01*
X109651818Y41405633D01*
X109911646Y41516285D01*
X110144895Y41675500D01*
X110342601Y41877161D01*
X110492735Y42106741D01*
X110561068Y41978899D01*
X110740393Y41760392D01*
X110958900Y41581068D01*
X111120126Y41494891D01*
X111125026Y41485724D01*
X111190756Y41405633D01*
X111220000Y41369999D01*
X111248998Y41346201D01*
X113736205Y38858992D01*
X113759999Y38829999D01*
X113788992Y38806205D01*
X113788996Y38806201D01*
X113848966Y38756986D01*
X113875724Y38735026D01*
X114007753Y38664454D01*
X114151014Y38620997D01*
X114262667Y38610000D01*
X114262676Y38610000D01*
X114299999Y38606324D01*
X114337322Y38610000D01*
X121882678Y38610000D01*
X121920000Y38606324D01*
X121957322Y38610000D01*
X121957333Y38610000D01*
X122068986Y38620997D01*
X122212247Y38664454D01*
X122344276Y38735026D01*
X122460001Y38829999D01*
X122483804Y38859003D01*
X124971009Y41346206D01*
X125000001Y41369999D01*
X125023795Y41398992D01*
X125023799Y41398996D01*
X125094973Y41485723D01*
X125094974Y41485724D01*
X125099873Y41494890D01*
X125261101Y41581068D01*
X125479608Y41760392D01*
X125658932Y41978899D01*
X125730000Y42111858D01*
X125801068Y41978899D01*
X125980393Y41760392D01*
X126198900Y41581068D01*
X126448193Y41447818D01*
X126718692Y41365764D01*
X127000000Y41338057D01*
X127281309Y41365764D01*
X127551808Y41447818D01*
X127801101Y41581068D01*
X128019608Y41760392D01*
X128198932Y41978899D01*
X128270000Y42111858D01*
X128341068Y41978899D01*
X128520393Y41760392D01*
X128738900Y41581068D01*
X128988193Y41447818D01*
X129258692Y41365764D01*
X129540000Y41338057D01*
X129821309Y41365764D01*
X130091808Y41447818D01*
X130341101Y41581068D01*
X130559608Y41760392D01*
X130738932Y41978899D01*
X130810000Y42111858D01*
X130881068Y41978899D01*
X131060393Y41760392D01*
X131278900Y41581068D01*
X131528193Y41447818D01*
X131798692Y41365764D01*
X132080000Y41338057D01*
X132361309Y41365764D01*
X132405906Y41379292D01*
X135688200Y38096998D01*
X135711999Y38067999D01*
X135740997Y38044201D01*
X135827723Y37973026D01*
X135952208Y37906487D01*
X135959753Y37902454D01*
X136103014Y37858997D01*
X136214667Y37848000D01*
X136214677Y37848000D01*
X136252000Y37844324D01*
X136289322Y37848000D01*
X140147199Y37848000D01*
X142946201Y35048997D01*
X142969999Y35019999D01*
X142998997Y34996201D01*
X143085723Y34925026D01*
X143172409Y34878691D01*
X143217753Y34854454D01*
X143361014Y34810997D01*
X143472667Y34800000D01*
X143472677Y34800000D01*
X143510000Y34796324D01*
X143547323Y34800000D01*
X144772405Y34800000D01*
X144809294Y34730986D01*
X144994866Y34504866D01*
X145220986Y34319294D01*
X145478966Y34181401D01*
X145758889Y34096487D01*
X145977050Y34075000D01*
X146122950Y34075000D01*
X146341111Y34096487D01*
X146621034Y34181401D01*
X146879014Y34319294D01*
X147105134Y34504866D01*
X147290706Y34730986D01*
X147428599Y34988966D01*
X147513513Y35268889D01*
X147542185Y35560000D01*
X147513513Y35851111D01*
X147428599Y36131034D01*
X147290706Y36389014D01*
X147105134Y36615134D01*
X146879014Y36800706D01*
X146824209Y36830000D01*
X146879014Y36859294D01*
X147105134Y37044866D01*
X147290706Y37270986D01*
X147428599Y37528966D01*
X147513513Y37808889D01*
X147542185Y38100000D01*
X147513513Y38391111D01*
X147428599Y38671034D01*
X147290706Y38929014D01*
X147105134Y39155134D01*
X146879014Y39340706D01*
X146824209Y39370000D01*
X146879014Y39399294D01*
X147105134Y39584866D01*
X147290706Y39810986D01*
X147428599Y40068966D01*
X147513513Y40348889D01*
X147542185Y40640000D01*
X147513513Y40931111D01*
X147428599Y41211034D01*
X147290706Y41469014D01*
X147105134Y41695134D01*
X146879014Y41880706D01*
X146824209Y41910000D01*
X146879014Y41939294D01*
X147105134Y42124866D01*
X147290706Y42350986D01*
X147327595Y42420000D01*
X147357333Y42420000D01*
X147468986Y42430997D01*
X147612247Y42474454D01*
X147744276Y42545026D01*
X147860001Y42639999D01*
X147954974Y42755724D01*
X148025546Y42887753D01*
X148069003Y43031014D01*
X148083677Y43180000D01*
X148069003Y43328986D01*
X148025546Y43472247D01*
X147954974Y43604276D01*
X147860001Y43720001D01*
X147744276Y43814974D01*
X147612247Y43885546D01*
X147468986Y43929003D01*
X147357333Y43940000D01*
X147327595Y43940000D01*
X147290706Y44009014D01*
X147105134Y44235134D01*
X147075313Y44259607D01*
X147144180Y44280498D01*
X147254494Y44339463D01*
X147351185Y44418815D01*
X147430537Y44515506D01*
X147489502Y44625820D01*
X147525812Y44745518D01*
X147538072Y44870000D01*
X147535000Y45434250D01*
X147376250Y45593000D01*
X146177000Y45593000D01*
X146177000Y45573000D01*
X145923000Y45573000D01*
X145923000Y45593000D01*
X144723750Y45593000D01*
X144565000Y45434250D01*
X144561928Y44870000D01*
X144574188Y44745518D01*
X144610498Y44625820D01*
X144669463Y44515506D01*
X144748815Y44418815D01*
X144845506Y44339463D01*
X144955820Y44280498D01*
X145024687Y44259607D01*
X144994866Y44235134D01*
X144809294Y44009014D01*
X144671401Y43751034D01*
X144586487Y43471111D01*
X144557815Y43180000D01*
X144586487Y42888889D01*
X144671401Y42608966D01*
X144809294Y42350986D01*
X144994866Y42124866D01*
X145220986Y41939294D01*
X145275791Y41910000D01*
X145220986Y41880706D01*
X144994866Y41695134D01*
X144809294Y41469014D01*
X144772405Y41400000D01*
X139614802Y41400000D01*
X138560708Y42454094D01*
X138574236Y42498691D01*
X138595000Y42709509D01*
X138595000Y43650492D01*
X138574236Y43861309D01*
X138492182Y44131808D01*
X138358932Y44381101D01*
X138179607Y44599608D01*
X137961100Y44778932D01*
X137711807Y44912182D01*
X137441308Y44994236D01*
X137160000Y45021943D01*
X136878691Y44994236D01*
X136608192Y44912182D01*
X136358899Y44778932D01*
X136140392Y44599607D01*
X135961068Y44381100D01*
X135892735Y44253258D01*
X135742601Y44482839D01*
X135544895Y44684500D01*
X135311646Y44843715D01*
X135051818Y44954367D01*
X134969039Y44971904D01*
X134747000Y44849915D01*
X134747000Y43307000D01*
X134767000Y43307000D01*
X134767000Y43053000D01*
X134747000Y43053000D01*
X134747000Y41510085D01*
X134969039Y41388096D01*
X135051818Y41405633D01*
X135311646Y41516285D01*
X135544895Y41675500D01*
X135742601Y41877161D01*
X135892735Y42106741D01*
X135961068Y41978899D01*
X136140393Y41760392D01*
X136358900Y41581068D01*
X136608193Y41447818D01*
X136878692Y41365764D01*
X137160000Y41338057D01*
X137441309Y41365764D01*
X137485906Y41379292D01*
X138736201Y40128997D01*
X138759999Y40099999D01*
X138788997Y40076201D01*
X138875723Y40005026D01*
X138995443Y39941034D01*
X139007753Y39934454D01*
X139151014Y39890997D01*
X139262667Y39880000D01*
X139262676Y39880000D01*
X139299999Y39876324D01*
X139337322Y39880000D01*
X144772405Y39880000D01*
X144809294Y39810986D01*
X144994866Y39584866D01*
X145220986Y39399294D01*
X145275791Y39370000D01*
X145220986Y39340706D01*
X144994866Y39155134D01*
X144809294Y38929014D01*
X144671401Y38671034D01*
X144586487Y38391111D01*
X144557815Y38100000D01*
X144586487Y37808889D01*
X144671401Y37528966D01*
X144809294Y37270986D01*
X144994866Y37044866D01*
X145220986Y36859294D01*
X145275791Y36830000D01*
X145220986Y36800706D01*
X144994866Y36615134D01*
X144809294Y36389014D01*
X144772405Y36320000D01*
X143824802Y36320000D01*
X141025804Y39118997D01*
X141002001Y39148001D01*
X140886276Y39242974D01*
X140754247Y39313546D01*
X140610986Y39357003D01*
X140499333Y39368000D01*
X140499322Y39368000D01*
X140462000Y39371676D01*
X140424678Y39368000D01*
X136566802Y39368000D01*
X134448929Y41485872D01*
X134493000Y41510085D01*
X134493000Y43053000D01*
X134473000Y43053000D01*
X134473000Y43307000D01*
X134493000Y43307000D01*
X134493000Y44849915D01*
X134270961Y44971904D01*
X134188182Y44954367D01*
X133928354Y44843715D01*
X133695105Y44684500D01*
X133497399Y44482839D01*
X133347265Y44253259D01*
X133278932Y44381101D01*
X133099607Y44599608D01*
X132881100Y44778932D01*
X132631807Y44912182D01*
X132361308Y44994236D01*
X132080000Y45021943D01*
X131798691Y44994236D01*
X131754094Y44980708D01*
X130757804Y45976997D01*
X130734001Y46006001D01*
X130618276Y46100974D01*
X130523446Y46151662D01*
X130535226Y46180102D01*
X130575000Y46380061D01*
X130575000Y46570000D01*
X144561928Y46570000D01*
X144565000Y46005750D01*
X144723750Y45847000D01*
X145923000Y45847000D01*
X145923000Y47046250D01*
X146177000Y47046250D01*
X146177000Y45847000D01*
X147376250Y45847000D01*
X147535000Y46005750D01*
X147538072Y46570000D01*
X147525812Y46694482D01*
X147489502Y46814180D01*
X147430537Y46924494D01*
X147351185Y47021185D01*
X147254494Y47100537D01*
X147144180Y47159502D01*
X147024482Y47195812D01*
X146900000Y47208072D01*
X146335750Y47205000D01*
X146177000Y47046250D01*
X145923000Y47046250D01*
X145764250Y47205000D01*
X145200000Y47208072D01*
X145075518Y47195812D01*
X144955820Y47159502D01*
X144845506Y47100537D01*
X144748815Y47021185D01*
X144669463Y46924494D01*
X144610498Y46814180D01*
X144574188Y46694482D01*
X144561928Y46570000D01*
X130575000Y46570000D01*
X130575000Y46583939D01*
X130535226Y46783898D01*
X130457205Y46972256D01*
X130343937Y47141774D01*
X130199774Y47285937D01*
X130030256Y47399205D01*
X129841898Y47477226D01*
X129641939Y47517000D01*
X129438061Y47517000D01*
X129238102Y47477226D01*
X129049744Y47399205D01*
X128880226Y47285937D01*
X128836289Y47242000D01*
X107079325Y47242000D01*
X107042000Y47245676D01*
X107004675Y47242000D01*
X107004667Y47242000D01*
X106893014Y47231003D01*
X106749753Y47187546D01*
X106617724Y47116974D01*
X106501999Y47022001D01*
X106478201Y46993003D01*
X104465906Y44980707D01*
X104421308Y44994236D01*
X104140000Y45021943D01*
X103858691Y44994236D01*
X103588192Y44912182D01*
X103338899Y44778932D01*
X103120392Y44599607D01*
X102941068Y44381100D01*
X102870000Y44248142D01*
X102798932Y44381101D01*
X102619607Y44599608D01*
X102401100Y44778932D01*
X102151807Y44912182D01*
X101881308Y44994236D01*
X101600000Y45021943D01*
X101318691Y44994236D01*
X101048192Y44912182D01*
X100798899Y44778932D01*
X100580392Y44599607D01*
X100401068Y44381100D01*
X100330000Y44248142D01*
X100258932Y44381101D01*
X100079607Y44599608D01*
X99861100Y44778932D01*
X99611807Y44912182D01*
X99341308Y44994236D01*
X99060000Y45021943D01*
X98778691Y44994236D01*
X98508192Y44912182D01*
X98258899Y44778932D01*
X98040392Y44599607D01*
X97861068Y44381100D01*
X97790000Y44248142D01*
X97718932Y44381101D01*
X97539607Y44599608D01*
X97321100Y44778932D01*
X97071807Y44912182D01*
X96801308Y44994236D01*
X96520000Y45021943D01*
X96238691Y44994236D01*
X95968192Y44912182D01*
X95718899Y44778932D01*
X95500392Y44599607D01*
X95321068Y44381100D01*
X95252735Y44253258D01*
X95102601Y44482839D01*
X94904895Y44684500D01*
X94671646Y44843715D01*
X94411818Y44954367D01*
X94329039Y44971904D01*
X94107000Y44849915D01*
X94107000Y43307000D01*
X94127000Y43307000D01*
X94127000Y43053000D01*
X94107000Y43053000D01*
X94107000Y43033000D01*
X93853000Y43033000D01*
X93853000Y43053000D01*
X92545000Y43053000D01*
X92545000Y42653000D01*
X92597350Y42375486D01*
X92702834Y42113517D01*
X92857399Y41877161D01*
X93055105Y41675500D01*
X93288354Y41516285D01*
X93548182Y41405633D01*
X93574771Y41400000D01*
X92143711Y41400000D01*
X92099774Y41443937D01*
X91930256Y41557205D01*
X91741898Y41635226D01*
X91541939Y41675000D01*
X91338061Y41675000D01*
X91138102Y41635226D01*
X90949744Y41557205D01*
X90780226Y41443937D01*
X90636063Y41299774D01*
X90522795Y41130256D01*
X90444774Y40941898D01*
X90405000Y40741939D01*
X90405000Y40538061D01*
X90444774Y40338102D01*
X90522795Y40149744D01*
X90535987Y40130000D01*
X87637595Y40130000D01*
X87600706Y40199014D01*
X87415134Y40425134D01*
X87189014Y40610706D01*
X87134209Y40640000D01*
X87189014Y40669294D01*
X87415134Y40854866D01*
X87600706Y41080986D01*
X87738599Y41338966D01*
X87823513Y41618889D01*
X87852185Y41910000D01*
X87823513Y42201111D01*
X87738599Y42481034D01*
X87600706Y42739014D01*
X87415134Y42965134D01*
X87385313Y42989607D01*
X87454180Y43010498D01*
X87564494Y43069463D01*
X87661185Y43148815D01*
X87740537Y43245506D01*
X87799502Y43355820D01*
X87835812Y43475518D01*
X87848072Y43600000D01*
X87847490Y43707000D01*
X92545000Y43707000D01*
X92545000Y43307000D01*
X93853000Y43307000D01*
X93853000Y44849915D01*
X93630961Y44971904D01*
X93548182Y44954367D01*
X93288354Y44843715D01*
X93055105Y44684500D01*
X92857399Y44482839D01*
X92702834Y44246483D01*
X92597350Y43984514D01*
X92545000Y43707000D01*
X87847490Y43707000D01*
X87845000Y44164250D01*
X87686250Y44323000D01*
X86487000Y44323000D01*
X86487000Y44303000D01*
X86233000Y44303000D01*
X86233000Y44323000D01*
X85033750Y44323000D01*
X84875000Y44164250D01*
X84871928Y43600000D01*
X84884188Y43475518D01*
X84920498Y43355820D01*
X84979463Y43245506D01*
X85058815Y43148815D01*
X85155506Y43069463D01*
X85265820Y43010498D01*
X85334687Y42989607D01*
X85304866Y42965134D01*
X85119294Y42739014D01*
X84981401Y42481034D01*
X84896487Y42201111D01*
X84867815Y41910000D01*
X80670000Y41910000D01*
X80670000Y45300000D01*
X84871928Y45300000D01*
X84875000Y44735750D01*
X85033750Y44577000D01*
X86233000Y44577000D01*
X86233000Y45776250D01*
X86487000Y45776250D01*
X86487000Y44577000D01*
X87686250Y44577000D01*
X87845000Y44735750D01*
X87848072Y45300000D01*
X87835812Y45424482D01*
X87799502Y45544180D01*
X87740537Y45654494D01*
X87661185Y45751185D01*
X87564494Y45830537D01*
X87454180Y45889502D01*
X87334482Y45925812D01*
X87210000Y45938072D01*
X86645750Y45935000D01*
X86487000Y45776250D01*
X86233000Y45776250D01*
X86074250Y45935000D01*
X85510000Y45938072D01*
X85385518Y45925812D01*
X85265820Y45889502D01*
X85155506Y45830537D01*
X85058815Y45751185D01*
X84979463Y45654494D01*
X84920498Y45544180D01*
X84884188Y45424482D01*
X84871928Y45300000D01*
X80670000Y45300000D01*
X80670000Y51528128D01*
X82093000Y51528128D01*
X82093000Y51087872D01*
X82178890Y50656075D01*
X82347369Y50249331D01*
X82591962Y49883271D01*
X82903271Y49571962D01*
X83269331Y49327369D01*
X83676075Y49158890D01*
X84107872Y49073000D01*
X84548128Y49073000D01*
X84979925Y49158890D01*
X85386669Y49327369D01*
X85752729Y49571962D01*
X86064038Y49883271D01*
X86308631Y50249331D01*
X86477110Y50656075D01*
X86563000Y51087872D01*
X86563000Y51528128D01*
X145593000Y51528128D01*
X145593000Y51087872D01*
X145678890Y50656075D01*
X145847369Y50249331D01*
X146091962Y49883271D01*
X146403271Y49571962D01*
X146769331Y49327369D01*
X147176075Y49158890D01*
X147607872Y49073000D01*
X148048128Y49073000D01*
X148479925Y49158890D01*
X148886669Y49327369D01*
X149252729Y49571962D01*
X149564038Y49883271D01*
X149808631Y50249331D01*
X149977110Y50656075D01*
X150063000Y51087872D01*
X150063000Y51528128D01*
X149977110Y51959925D01*
X149808631Y52366669D01*
X149564038Y52732729D01*
X149252729Y53044038D01*
X148886669Y53288631D01*
X148479925Y53457110D01*
X148048128Y53543000D01*
X147607872Y53543000D01*
X147176075Y53457110D01*
X146769331Y53288631D01*
X146403271Y53044038D01*
X146091962Y52732729D01*
X145847369Y52366669D01*
X145678890Y51959925D01*
X145593000Y51528128D01*
X86563000Y51528128D01*
X86477110Y51959925D01*
X86308631Y52366669D01*
X86064038Y52732729D01*
X85752729Y53044038D01*
X85386669Y53288631D01*
X84979925Y53457110D01*
X84548128Y53543000D01*
X84107872Y53543000D01*
X83676075Y53457110D01*
X83269331Y53288631D01*
X82903271Y53044038D01*
X82591962Y52732729D01*
X82347369Y52366669D01*
X82178890Y51959925D01*
X82093000Y51528128D01*
X80670000Y51528128D01*
X80670000Y54966000D01*
X151740000Y54966000D01*
X151740001Y50832428D01*
X151740001Y50832428D01*
G37*
X151740001Y50832428D02*
X151740000Y50832418D01*
X151740001Y23520000D01*
X80670000Y23520000D01*
X80670000Y26890128D01*
X82093000Y26890128D01*
X82093000Y26449872D01*
X82178890Y26018075D01*
X82347369Y25611331D01*
X82591962Y25245271D01*
X82903271Y24933962D01*
X83269331Y24689369D01*
X83676075Y24520890D01*
X84107872Y24435000D01*
X84548128Y24435000D01*
X84979925Y24520890D01*
X85386669Y24689369D01*
X85752729Y24933962D01*
X86064038Y25245271D01*
X86308631Y25611331D01*
X86477110Y26018075D01*
X86563000Y26449872D01*
X86563000Y26890128D01*
X145847000Y26890128D01*
X145847000Y26449872D01*
X145932890Y26018075D01*
X146101369Y25611331D01*
X146345962Y25245271D01*
X146657271Y24933962D01*
X147023331Y24689369D01*
X147430075Y24520890D01*
X147861872Y24435000D01*
X148302128Y24435000D01*
X148733925Y24520890D01*
X149140669Y24689369D01*
X149506729Y24933962D01*
X149818038Y25245271D01*
X150062631Y25611331D01*
X150231110Y26018075D01*
X150317000Y26449872D01*
X150317000Y26890128D01*
X150231110Y27321925D01*
X150062631Y27728669D01*
X149818038Y28094729D01*
X149506729Y28406038D01*
X149140669Y28650631D01*
X148733925Y28819110D01*
X148302128Y28905000D01*
X147861872Y28905000D01*
X147430075Y28819110D01*
X147023331Y28650631D01*
X146657271Y28406038D01*
X146345962Y28094729D01*
X146101369Y27728669D01*
X145932890Y27321925D01*
X145847000Y26890128D01*
X86563000Y26890128D01*
X86477110Y27321925D01*
X86308631Y27728669D01*
X86064038Y28094729D01*
X85752729Y28406038D01*
X85386669Y28650631D01*
X84979925Y28819110D01*
X84548128Y28905000D01*
X84107872Y28905000D01*
X83676075Y28819110D01*
X83269331Y28650631D01*
X82903271Y28406038D01*
X82591962Y28094729D01*
X82347369Y27728669D01*
X82178890Y27321925D01*
X82093000Y26890128D01*
X80670000Y26890128D01*
X80670000Y41910000D01*
X84867815Y41910000D01*
X84896487Y41618889D01*
X84981401Y41338966D01*
X85119294Y41080986D01*
X85304866Y40854866D01*
X85530986Y40669294D01*
X85585791Y40640000D01*
X85530986Y40610706D01*
X85304866Y40425134D01*
X85119294Y40199014D01*
X84981401Y39941034D01*
X84896487Y39661111D01*
X84867815Y39370000D01*
X84896487Y39078889D01*
X84981401Y38798966D01*
X85119294Y38540986D01*
X85304866Y38314866D01*
X85530986Y38129294D01*
X85585791Y38100000D01*
X85530986Y38070706D01*
X85304866Y37885134D01*
X85119294Y37659014D01*
X84981401Y37401034D01*
X84896487Y37121111D01*
X84867815Y36830000D01*
X84896487Y36538889D01*
X84981401Y36258966D01*
X85119294Y36000986D01*
X85304866Y35774866D01*
X85530986Y35589294D01*
X85585791Y35560000D01*
X85530986Y35530706D01*
X85304866Y35345134D01*
X85119294Y35119014D01*
X84981401Y34861034D01*
X84896487Y34581111D01*
X84867815Y34290000D01*
X84896487Y33998889D01*
X84981401Y33718966D01*
X85119294Y33460986D01*
X85304866Y33234866D01*
X85530986Y33049294D01*
X85788966Y32911401D01*
X86068889Y32826487D01*
X86287050Y32805000D01*
X86432950Y32805000D01*
X86651111Y32826487D01*
X86931034Y32911401D01*
X87189014Y33049294D01*
X87415134Y33234866D01*
X87600706Y33460986D01*
X87738599Y33718966D01*
X87823513Y33998889D01*
X87852185Y34290000D01*
X87843321Y34379999D01*
X89458677Y34379999D01*
X89495999Y34376323D01*
X89533321Y34379999D01*
X89533332Y34379999D01*
X89644985Y34390996D01*
X89788246Y34434453D01*
X89920275Y34505025D01*
X90036000Y34599998D01*
X90059803Y34629002D01*
X92516802Y37086000D01*
X92634232Y37086000D01*
X92590498Y37004180D01*
X92554188Y36884482D01*
X92541928Y36760000D01*
X92541928Y34360000D01*
X92554188Y34235518D01*
X92590498Y34115820D01*
X92649463Y34005506D01*
X92728815Y33908815D01*
X92825506Y33829463D01*
X92935820Y33770498D01*
X93055518Y33734188D01*
X93180000Y33721928D01*
X93220000Y33721928D01*
X93220001Y30487595D01*
X93150986Y30450706D01*
X92924866Y30265134D01*
X92900393Y30235313D01*
X92879502Y30304180D01*
X92820537Y30414494D01*
X92741185Y30511185D01*
X92644494Y30590537D01*
X92534180Y30649502D01*
X92414482Y30685812D01*
X92290000Y30698072D01*
X90590000Y30698072D01*
X90465518Y30685812D01*
X90345820Y30649502D01*
X90235506Y30590537D01*
X90138815Y30511185D01*
X90059463Y30414494D01*
X90000498Y30304180D01*
X89964188Y30184482D01*
X89951928Y30060000D01*
X89951928Y28360000D01*
X89964188Y28235518D01*
X90000498Y28115820D01*
X90059463Y28005506D01*
X90138815Y27908815D01*
X90235506Y27829463D01*
X90345820Y27770498D01*
X90465518Y27734188D01*
X90590000Y27721928D01*
X92290000Y27721928D01*
X92414482Y27734188D01*
X92534180Y27770498D01*
X92644494Y27829463D01*
X92741185Y27908815D01*
X92820537Y28005506D01*
X92879502Y28115820D01*
X92900393Y28184687D01*
X92924866Y28154866D01*
X93150986Y27969294D01*
X93408966Y27831401D01*
X93688889Y27746487D01*
X93907050Y27725000D01*
X94052950Y27725000D01*
X94271111Y27746487D01*
X94551034Y27831401D01*
X94809014Y27969294D01*
X95035134Y28154866D01*
X95220706Y28380986D01*
X95250000Y28435791D01*
X95279294Y28380986D01*
X95464866Y28154866D01*
X95690986Y27969294D01*
X95948966Y27831401D01*
X96228889Y27746487D01*
X96447050Y27725000D01*
X96592950Y27725000D01*
X96811111Y27746487D01*
X97091034Y27831401D01*
X97349014Y27969294D01*
X97575134Y28154866D01*
X97760706Y28380986D01*
X97790000Y28435791D01*
X97819294Y28380986D01*
X98004866Y28154866D01*
X98230986Y27969294D01*
X98488966Y27831401D01*
X98768889Y27746487D01*
X98987050Y27725000D01*
X99132950Y27725000D01*
X99351111Y27746487D01*
X99631034Y27831401D01*
X99889014Y27969294D01*
X100115134Y28154866D01*
X100300706Y28380986D01*
X100330000Y28435791D01*
X100359294Y28380986D01*
X100544866Y28154866D01*
X100770986Y27969294D01*
X101028966Y27831401D01*
X101308889Y27746487D01*
X101527050Y27725000D01*
X101672950Y27725000D01*
X101891111Y27746487D01*
X102171034Y27831401D01*
X102429014Y27969294D01*
X102655134Y28154866D01*
X102840706Y28380986D01*
X102870000Y28435791D01*
X102899294Y28380986D01*
X103084866Y28154866D01*
X103310986Y27969294D01*
X103568966Y27831401D01*
X103848889Y27746487D01*
X104067050Y27725000D01*
X104212950Y27725000D01*
X104431111Y27746487D01*
X104711034Y27831401D01*
X104969014Y27969294D01*
X105195134Y28154866D01*
X105380706Y28380986D01*
X105410000Y28435791D01*
X105439294Y28380986D01*
X105624866Y28154866D01*
X105850986Y27969294D01*
X106108966Y27831401D01*
X106388889Y27746487D01*
X106607050Y27725000D01*
X106752950Y27725000D01*
X106971111Y27746487D01*
X107251034Y27831401D01*
X107509014Y27969294D01*
X107735134Y28154866D01*
X107920706Y28380986D01*
X107950000Y28435791D01*
X107979294Y28380986D01*
X108164866Y28154866D01*
X108390986Y27969294D01*
X108648966Y27831401D01*
X108928889Y27746487D01*
X109147050Y27725000D01*
X109292950Y27725000D01*
X109511111Y27746487D01*
X109791034Y27831401D01*
X110049014Y27969294D01*
X110275134Y28154866D01*
X110460706Y28380986D01*
X110598599Y28638966D01*
X110683513Y28918889D01*
X110712185Y29210000D01*
X110683513Y29501111D01*
X110598599Y29781034D01*
X110460706Y30039014D01*
X110443484Y30060000D01*
X115351928Y30060000D01*
X115351928Y28360000D01*
X115364188Y28235518D01*
X115400498Y28115820D01*
X115459463Y28005506D01*
X115538815Y27908815D01*
X115635506Y27829463D01*
X115745820Y27770498D01*
X115865518Y27734188D01*
X115990000Y27721928D01*
X117690000Y27721928D01*
X117814482Y27734188D01*
X117934180Y27770498D01*
X118044494Y27829463D01*
X118141185Y27908815D01*
X118220537Y28005506D01*
X118279502Y28115820D01*
X118300393Y28184687D01*
X118324866Y28154866D01*
X118550986Y27969294D01*
X118808966Y27831401D01*
X119088889Y27746487D01*
X119307050Y27725000D01*
X119452950Y27725000D01*
X119671111Y27746487D01*
X119951034Y27831401D01*
X120209014Y27969294D01*
X120435134Y28154866D01*
X120620706Y28380986D01*
X120650000Y28435791D01*
X120679294Y28380986D01*
X120864866Y28154866D01*
X121090986Y27969294D01*
X121348966Y27831401D01*
X121628889Y27746487D01*
X121847050Y27725000D01*
X121992950Y27725000D01*
X122211111Y27746487D01*
X122491034Y27831401D01*
X122749014Y27969294D01*
X122975134Y28154866D01*
X123160706Y28380986D01*
X123190000Y28435791D01*
X123219294Y28380986D01*
X123404866Y28154866D01*
X123630986Y27969294D01*
X123888966Y27831401D01*
X124168889Y27746487D01*
X124387050Y27725000D01*
X124532950Y27725000D01*
X124751111Y27746487D01*
X125031034Y27831401D01*
X125289014Y27969294D01*
X125515134Y28154866D01*
X125700706Y28380986D01*
X125730000Y28435791D01*
X125759294Y28380986D01*
X125944866Y28154866D01*
X126170986Y27969294D01*
X126428966Y27831401D01*
X126708889Y27746487D01*
X126927050Y27725000D01*
X127072950Y27725000D01*
X127291111Y27746487D01*
X127571034Y27831401D01*
X127829014Y27969294D01*
X128055134Y28154866D01*
X128240706Y28380986D01*
X128270000Y28435791D01*
X128299294Y28380986D01*
X128484866Y28154866D01*
X128710986Y27969294D01*
X128968966Y27831401D01*
X129248889Y27746487D01*
X129467050Y27725000D01*
X129612950Y27725000D01*
X129831111Y27746487D01*
X130111034Y27831401D01*
X130369014Y27969294D01*
X130595134Y28154866D01*
X130780706Y28380986D01*
X130810000Y28435791D01*
X130839294Y28380986D01*
X131024866Y28154866D01*
X131250986Y27969294D01*
X131508966Y27831401D01*
X131788889Y27746487D01*
X132007050Y27725000D01*
X132152950Y27725000D01*
X132371111Y27746487D01*
X132651034Y27831401D01*
X132909014Y27969294D01*
X133135134Y28154866D01*
X133320706Y28380986D01*
X133350000Y28435791D01*
X133379294Y28380986D01*
X133564866Y28154866D01*
X133790986Y27969294D01*
X134048966Y27831401D01*
X134328889Y27746487D01*
X134547050Y27725000D01*
X134692950Y27725000D01*
X134911111Y27746487D01*
X135191034Y27831401D01*
X135449014Y27969294D01*
X135675134Y28154866D01*
X135860706Y28380986D01*
X135998599Y28638966D01*
X136083513Y28918889D01*
X136112185Y29210000D01*
X136083513Y29501111D01*
X135998599Y29781034D01*
X135860706Y30039014D01*
X135675134Y30265134D01*
X135449014Y30450706D01*
X135380000Y30487595D01*
X135380000Y33939099D01*
X135421101Y33961068D01*
X135639608Y34140392D01*
X135818932Y34358899D01*
X135890000Y34491858D01*
X135961068Y34358899D01*
X136140393Y34140392D01*
X136358900Y33961068D01*
X136608193Y33827818D01*
X136878692Y33745764D01*
X137160000Y33718057D01*
X137441309Y33745764D01*
X137711808Y33827818D01*
X137961101Y33961068D01*
X138179608Y34140392D01*
X138358932Y34358899D01*
X138492182Y34608192D01*
X138574236Y34878691D01*
X138595000Y35089509D01*
X138595000Y36030492D01*
X138574236Y36241309D01*
X138492182Y36511808D01*
X138358932Y36761101D01*
X138179607Y36979608D01*
X137961100Y37158932D01*
X137711807Y37292182D01*
X137441308Y37374236D01*
X137160000Y37401943D01*
X136878691Y37374236D01*
X136608192Y37292182D01*
X136358899Y37158932D01*
X136140392Y36979607D01*
X135961068Y36761100D01*
X135890000Y36628142D01*
X135818932Y36761101D01*
X135639607Y36979608D01*
X135421100Y37158932D01*
X135171807Y37292182D01*
X134901308Y37374236D01*
X134620000Y37401943D01*
X134338691Y37374236D01*
X134068192Y37292182D01*
X133818899Y37158932D01*
X133600392Y36979607D01*
X133421068Y36761100D01*
X133350000Y36628142D01*
X133278932Y36761101D01*
X133099607Y36979608D01*
X132881100Y37158932D01*
X132631807Y37292182D01*
X132361308Y37374236D01*
X132080000Y37401943D01*
X131798691Y37374236D01*
X131528192Y37292182D01*
X131278899Y37158932D01*
X131060392Y36979607D01*
X130881068Y36761100D01*
X130810000Y36628142D01*
X130738932Y36761101D01*
X130559607Y36979608D01*
X130341100Y37158932D01*
X130091807Y37292182D01*
X129821308Y37374236D01*
X129540000Y37401943D01*
X129258691Y37374236D01*
X128988192Y37292182D01*
X128738899Y37158932D01*
X128520392Y36979607D01*
X128341068Y36761100D01*
X128270000Y36628142D01*
X128198932Y36761101D01*
X128019607Y36979608D01*
X127801100Y37158932D01*
X127551807Y37292182D01*
X127281308Y37374236D01*
X127000000Y37401943D01*
X126718691Y37374236D01*
X126448192Y37292182D01*
X126198899Y37158932D01*
X125980392Y36979607D01*
X125801068Y36761100D01*
X125730000Y36628142D01*
X125658932Y36761101D01*
X125479607Y36979608D01*
X125261100Y37158932D01*
X125011807Y37292182D01*
X124741308Y37374236D01*
X124460000Y37401943D01*
X124178691Y37374236D01*
X123908192Y37292182D01*
X123658899Y37158932D01*
X123440392Y36979607D01*
X123261068Y36761100D01*
X123190000Y36628142D01*
X123118932Y36761101D01*
X122939607Y36979608D01*
X122721100Y37158932D01*
X122471807Y37292182D01*
X122201308Y37374236D01*
X121920000Y37401943D01*
X121638691Y37374236D01*
X121368192Y37292182D01*
X121118899Y37158932D01*
X120900392Y36979607D01*
X120807581Y36866517D01*
X120805812Y36884482D01*
X120769502Y37004180D01*
X120710537Y37114494D01*
X120631185Y37211185D01*
X120534494Y37290537D01*
X120424180Y37349502D01*
X120304482Y37385812D01*
X120180000Y37398072D01*
X118580000Y37398072D01*
X118455518Y37385812D01*
X118335820Y37349502D01*
X118225506Y37290537D01*
X118128815Y37211185D01*
X118049463Y37114494D01*
X117990498Y37004180D01*
X117954188Y36884482D01*
X117941928Y36760000D01*
X117941928Y34360000D01*
X117954188Y34235518D01*
X117990498Y34115820D01*
X118049463Y34005506D01*
X118128815Y33908815D01*
X118225506Y33829463D01*
X118335820Y33770498D01*
X118455518Y33734188D01*
X118580000Y33721928D01*
X118620000Y33721928D01*
X118620001Y30487595D01*
X118550986Y30450706D01*
X118324866Y30265134D01*
X118300393Y30235313D01*
X118279502Y30304180D01*
X118220537Y30414494D01*
X118141185Y30511185D01*
X118044494Y30590537D01*
X117934180Y30649502D01*
X117814482Y30685812D01*
X117690000Y30698072D01*
X115990000Y30698072D01*
X115865518Y30685812D01*
X115745820Y30649502D01*
X115635506Y30590537D01*
X115538815Y30511185D01*
X115459463Y30414494D01*
X115400498Y30304180D01*
X115364188Y30184482D01*
X115351928Y30060000D01*
X110443484Y30060000D01*
X110275134Y30265134D01*
X110049014Y30450706D01*
X109980000Y30487595D01*
X109980000Y33939099D01*
X110021101Y33961068D01*
X110239608Y34140392D01*
X110418932Y34358899D01*
X110490000Y34491858D01*
X110561068Y34358899D01*
X110740393Y34140392D01*
X110958900Y33961068D01*
X111208193Y33827818D01*
X111478692Y33745764D01*
X111760000Y33718057D01*
X112041309Y33745764D01*
X112311808Y33827818D01*
X112561101Y33961068D01*
X112779608Y34140392D01*
X112958932Y34358899D01*
X113092182Y34608192D01*
X113174236Y34878691D01*
X113195000Y35089509D01*
X113195000Y36030492D01*
X113174236Y36241309D01*
X113092182Y36511808D01*
X112958932Y36761101D01*
X112779607Y36979608D01*
X112561100Y37158932D01*
X112311807Y37292182D01*
X112041308Y37374236D01*
X111760000Y37401943D01*
X111478691Y37374236D01*
X111208192Y37292182D01*
X110958899Y37158932D01*
X110740392Y36979607D01*
X110561068Y36761100D01*
X110490000Y36628142D01*
X110418932Y36761101D01*
X110239607Y36979608D01*
X110021100Y37158932D01*
X109771807Y37292182D01*
X109501308Y37374236D01*
X109220000Y37401943D01*
X108938691Y37374236D01*
X108668192Y37292182D01*
X108418899Y37158932D01*
X108200392Y36979607D01*
X108021068Y36761100D01*
X107950000Y36628142D01*
X107878932Y36761101D01*
X107699607Y36979608D01*
X107481100Y37158932D01*
X107231807Y37292182D01*
X106961308Y37374236D01*
X106680000Y37401943D01*
X106398691Y37374236D01*
X106128192Y37292182D01*
X105878899Y37158932D01*
X105660392Y36979607D01*
X105481068Y36761100D01*
X105410000Y36628142D01*
X105338932Y36761101D01*
X105159607Y36979608D01*
X104941100Y37158932D01*
X104691807Y37292182D01*
X104421308Y37374236D01*
X104251739Y37390937D01*
X107191004Y40330202D01*
X107220001Y40353999D01*
X107295904Y40446487D01*
X107314974Y40469723D01*
X107385546Y40601753D01*
X107388262Y40610706D01*
X107429003Y40745014D01*
X107440000Y40856667D01*
X107440000Y40856677D01*
X107443676Y40894000D01*
X107440000Y40931323D01*
X107440000Y41559099D01*
X107481101Y41581068D01*
X107699608Y41760392D01*
X107878932Y41978899D01*
X107947265Y42106741D01*
X108097399Y41877161D01*
X108295105Y41675500D01*
X108528354Y41516285D01*
X108788182Y41405633D01*
X108870961Y41388096D01*
X109093000Y41510085D01*
X109093000Y43053000D01*
X109073000Y43053000D01*
X109073000Y43307000D01*
X109093000Y43307000D01*
X109093000Y43327000D01*
X109347000Y43327000D01*
X109347000Y43307000D01*
X109367000Y43307000D01*
X109367000Y43053000D01*
X109347000Y43053000D01*
X109347000Y41510085D01*
X109569039Y41388096D01*
X109651818Y41405633D01*
X109911646Y41516285D01*
X110144895Y41675500D01*
X110342601Y41877161D01*
X110492735Y42106741D01*
X110561068Y41978899D01*
X110740393Y41760392D01*
X110958900Y41581068D01*
X111120126Y41494891D01*
X111125026Y41485724D01*
X111190756Y41405633D01*
X111220000Y41369999D01*
X111248998Y41346201D01*
X113736205Y38858992D01*
X113759999Y38829999D01*
X113788992Y38806205D01*
X113788996Y38806201D01*
X113848966Y38756986D01*
X113875724Y38735026D01*
X114007753Y38664454D01*
X114151014Y38620997D01*
X114262667Y38610000D01*
X114262676Y38610000D01*
X114299999Y38606324D01*
X114337322Y38610000D01*
X121882678Y38610000D01*
X121920000Y38606324D01*
X121957322Y38610000D01*
X121957333Y38610000D01*
X122068986Y38620997D01*
X122212247Y38664454D01*
X122344276Y38735026D01*
X122460001Y38829999D01*
X122483804Y38859003D01*
X124971009Y41346206D01*
X125000001Y41369999D01*
X125023795Y41398992D01*
X125023799Y41398996D01*
X125094973Y41485723D01*
X125094974Y41485724D01*
X125099873Y41494890D01*
X125261101Y41581068D01*
X125479608Y41760392D01*
X125658932Y41978899D01*
X125730000Y42111858D01*
X125801068Y41978899D01*
X125980393Y41760392D01*
X126198900Y41581068D01*
X126448193Y41447818D01*
X126718692Y41365764D01*
X127000000Y41338057D01*
X127281309Y41365764D01*
X127551808Y41447818D01*
X127801101Y41581068D01*
X128019608Y41760392D01*
X128198932Y41978899D01*
X128270000Y42111858D01*
X128341068Y41978899D01*
X128520393Y41760392D01*
X128738900Y41581068D01*
X128988193Y41447818D01*
X129258692Y41365764D01*
X129540000Y41338057D01*
X129821309Y41365764D01*
X130091808Y41447818D01*
X130341101Y41581068D01*
X130559608Y41760392D01*
X130738932Y41978899D01*
X130810000Y42111858D01*
X130881068Y41978899D01*
X131060393Y41760392D01*
X131278900Y41581068D01*
X131528193Y41447818D01*
X131798692Y41365764D01*
X132080000Y41338057D01*
X132361309Y41365764D01*
X132405906Y41379292D01*
X135688200Y38096998D01*
X135711999Y38067999D01*
X135740997Y38044201D01*
X135827723Y37973026D01*
X135952208Y37906487D01*
X135959753Y37902454D01*
X136103014Y37858997D01*
X136214667Y37848000D01*
X136214677Y37848000D01*
X136252000Y37844324D01*
X136289322Y37848000D01*
X140147199Y37848000D01*
X142946201Y35048997D01*
X142969999Y35019999D01*
X142998997Y34996201D01*
X143085723Y34925026D01*
X143172409Y34878691D01*
X143217753Y34854454D01*
X143361014Y34810997D01*
X143472667Y34800000D01*
X143472677Y34800000D01*
X143510000Y34796324D01*
X143547323Y34800000D01*
X144772405Y34800000D01*
X144809294Y34730986D01*
X144994866Y34504866D01*
X145220986Y34319294D01*
X145478966Y34181401D01*
X145758889Y34096487D01*
X145977050Y34075000D01*
X146122950Y34075000D01*
X146341111Y34096487D01*
X146621034Y34181401D01*
X146879014Y34319294D01*
X147105134Y34504866D01*
X147290706Y34730986D01*
X147428599Y34988966D01*
X147513513Y35268889D01*
X147542185Y35560000D01*
X147513513Y35851111D01*
X147428599Y36131034D01*
X147290706Y36389014D01*
X147105134Y36615134D01*
X146879014Y36800706D01*
X146824209Y36830000D01*
X146879014Y36859294D01*
X147105134Y37044866D01*
X147290706Y37270986D01*
X147428599Y37528966D01*
X147513513Y37808889D01*
X147542185Y38100000D01*
X147513513Y38391111D01*
X147428599Y38671034D01*
X147290706Y38929014D01*
X147105134Y39155134D01*
X146879014Y39340706D01*
X146824209Y39370000D01*
X146879014Y39399294D01*
X147105134Y39584866D01*
X147290706Y39810986D01*
X147428599Y40068966D01*
X147513513Y40348889D01*
X147542185Y40640000D01*
X147513513Y40931111D01*
X147428599Y41211034D01*
X147290706Y41469014D01*
X147105134Y41695134D01*
X146879014Y41880706D01*
X146824209Y41910000D01*
X146879014Y41939294D01*
X147105134Y42124866D01*
X147290706Y42350986D01*
X147327595Y42420000D01*
X147357333Y42420000D01*
X147468986Y42430997D01*
X147612247Y42474454D01*
X147744276Y42545026D01*
X147860001Y42639999D01*
X147954974Y42755724D01*
X148025546Y42887753D01*
X148069003Y43031014D01*
X148083677Y43180000D01*
X148069003Y43328986D01*
X148025546Y43472247D01*
X147954974Y43604276D01*
X147860001Y43720001D01*
X147744276Y43814974D01*
X147612247Y43885546D01*
X147468986Y43929003D01*
X147357333Y43940000D01*
X147327595Y43940000D01*
X147290706Y44009014D01*
X147105134Y44235134D01*
X147075313Y44259607D01*
X147144180Y44280498D01*
X147254494Y44339463D01*
X147351185Y44418815D01*
X147430537Y44515506D01*
X147489502Y44625820D01*
X147525812Y44745518D01*
X147538072Y44870000D01*
X147535000Y45434250D01*
X147376250Y45593000D01*
X146177000Y45593000D01*
X146177000Y45573000D01*
X145923000Y45573000D01*
X145923000Y45593000D01*
X144723750Y45593000D01*
X144565000Y45434250D01*
X144561928Y44870000D01*
X144574188Y44745518D01*
X144610498Y44625820D01*
X144669463Y44515506D01*
X144748815Y44418815D01*
X144845506Y44339463D01*
X144955820Y44280498D01*
X145024687Y44259607D01*
X144994866Y44235134D01*
X144809294Y44009014D01*
X144671401Y43751034D01*
X144586487Y43471111D01*
X144557815Y43180000D01*
X144586487Y42888889D01*
X144671401Y42608966D01*
X144809294Y42350986D01*
X144994866Y42124866D01*
X145220986Y41939294D01*
X145275791Y41910000D01*
X145220986Y41880706D01*
X144994866Y41695134D01*
X144809294Y41469014D01*
X144772405Y41400000D01*
X139614802Y41400000D01*
X138560708Y42454094D01*
X138574236Y42498691D01*
X138595000Y42709509D01*
X138595000Y43650492D01*
X138574236Y43861309D01*
X138492182Y44131808D01*
X138358932Y44381101D01*
X138179607Y44599608D01*
X137961100Y44778932D01*
X137711807Y44912182D01*
X137441308Y44994236D01*
X137160000Y45021943D01*
X136878691Y44994236D01*
X136608192Y44912182D01*
X136358899Y44778932D01*
X136140392Y44599607D01*
X135961068Y44381100D01*
X135892735Y44253258D01*
X135742601Y44482839D01*
X135544895Y44684500D01*
X135311646Y44843715D01*
X135051818Y44954367D01*
X134969039Y44971904D01*
X134747000Y44849915D01*
X134747000Y43307000D01*
X134767000Y43307000D01*
X134767000Y43053000D01*
X134747000Y43053000D01*
X134747000Y41510085D01*
X134969039Y41388096D01*
X135051818Y41405633D01*
X135311646Y41516285D01*
X135544895Y41675500D01*
X135742601Y41877161D01*
X135892735Y42106741D01*
X135961068Y41978899D01*
X136140393Y41760392D01*
X136358900Y41581068D01*
X136608193Y41447818D01*
X136878692Y41365764D01*
X137160000Y41338057D01*
X137441309Y41365764D01*
X137485906Y41379292D01*
X138736201Y40128997D01*
X138759999Y40099999D01*
X138788997Y40076201D01*
X138875723Y40005026D01*
X138995443Y39941034D01*
X139007753Y39934454D01*
X139151014Y39890997D01*
X139262667Y39880000D01*
X139262676Y39880000D01*
X139299999Y39876324D01*
X139337322Y39880000D01*
X144772405Y39880000D01*
X144809294Y39810986D01*
X144994866Y39584866D01*
X145220986Y39399294D01*
X145275791Y39370000D01*
X145220986Y39340706D01*
X144994866Y39155134D01*
X144809294Y38929014D01*
X144671401Y38671034D01*
X144586487Y38391111D01*
X144557815Y38100000D01*
X144586487Y37808889D01*
X144671401Y37528966D01*
X144809294Y37270986D01*
X144994866Y37044866D01*
X145220986Y36859294D01*
X145275791Y36830000D01*
X145220986Y36800706D01*
X144994866Y36615134D01*
X144809294Y36389014D01*
X144772405Y36320000D01*
X143824802Y36320000D01*
X141025804Y39118997D01*
X141002001Y39148001D01*
X140886276Y39242974D01*
X140754247Y39313546D01*
X140610986Y39357003D01*
X140499333Y39368000D01*
X140499322Y39368000D01*
X140462000Y39371676D01*
X140424678Y39368000D01*
X136566802Y39368000D01*
X134448929Y41485872D01*
X134493000Y41510085D01*
X134493000Y43053000D01*
X134473000Y43053000D01*
X134473000Y43307000D01*
X134493000Y43307000D01*
X134493000Y44849915D01*
X134270961Y44971904D01*
X134188182Y44954367D01*
X133928354Y44843715D01*
X133695105Y44684500D01*
X133497399Y44482839D01*
X133347265Y44253259D01*
X133278932Y44381101D01*
X133099607Y44599608D01*
X132881100Y44778932D01*
X132631807Y44912182D01*
X132361308Y44994236D01*
X132080000Y45021943D01*
X131798691Y44994236D01*
X131754094Y44980708D01*
X130757804Y45976997D01*
X130734001Y46006001D01*
X130618276Y46100974D01*
X130523446Y46151662D01*
X130535226Y46180102D01*
X130575000Y46380061D01*
X130575000Y46570000D01*
X144561928Y46570000D01*
X144565000Y46005750D01*
X144723750Y45847000D01*
X145923000Y45847000D01*
X145923000Y47046250D01*
X146177000Y47046250D01*
X146177000Y45847000D01*
X147376250Y45847000D01*
X147535000Y46005750D01*
X147538072Y46570000D01*
X147525812Y46694482D01*
X147489502Y46814180D01*
X147430537Y46924494D01*
X147351185Y47021185D01*
X147254494Y47100537D01*
X147144180Y47159502D01*
X147024482Y47195812D01*
X146900000Y47208072D01*
X146335750Y47205000D01*
X146177000Y47046250D01*
X145923000Y47046250D01*
X145764250Y47205000D01*
X145200000Y47208072D01*
X145075518Y47195812D01*
X144955820Y47159502D01*
X144845506Y47100537D01*
X144748815Y47021185D01*
X144669463Y46924494D01*
X144610498Y46814180D01*
X144574188Y46694482D01*
X144561928Y46570000D01*
X130575000Y46570000D01*
X130575000Y46583939D01*
X130535226Y46783898D01*
X130457205Y46972256D01*
X130343937Y47141774D01*
X130199774Y47285937D01*
X130030256Y47399205D01*
X129841898Y47477226D01*
X129641939Y47517000D01*
X129438061Y47517000D01*
X129238102Y47477226D01*
X129049744Y47399205D01*
X128880226Y47285937D01*
X128836289Y47242000D01*
X107079325Y47242000D01*
X107042000Y47245676D01*
X107004675Y47242000D01*
X107004667Y47242000D01*
X106893014Y47231003D01*
X106749753Y47187546D01*
X106617724Y47116974D01*
X106501999Y47022001D01*
X106478201Y46993003D01*
X104465906Y44980707D01*
X104421308Y44994236D01*
X104140000Y45021943D01*
X103858691Y44994236D01*
X103588192Y44912182D01*
X103338899Y44778932D01*
X103120392Y44599607D01*
X102941068Y44381100D01*
X102870000Y44248142D01*
X102798932Y44381101D01*
X102619607Y44599608D01*
X102401100Y44778932D01*
X102151807Y44912182D01*
X101881308Y44994236D01*
X101600000Y45021943D01*
X101318691Y44994236D01*
X101048192Y44912182D01*
X100798899Y44778932D01*
X100580392Y44599607D01*
X100401068Y44381100D01*
X100330000Y44248142D01*
X100258932Y44381101D01*
X100079607Y44599608D01*
X99861100Y44778932D01*
X99611807Y44912182D01*
X99341308Y44994236D01*
X99060000Y45021943D01*
X98778691Y44994236D01*
X98508192Y44912182D01*
X98258899Y44778932D01*
X98040392Y44599607D01*
X97861068Y44381100D01*
X97790000Y44248142D01*
X97718932Y44381101D01*
X97539607Y44599608D01*
X97321100Y44778932D01*
X97071807Y44912182D01*
X96801308Y44994236D01*
X96520000Y45021943D01*
X96238691Y44994236D01*
X95968192Y44912182D01*
X95718899Y44778932D01*
X95500392Y44599607D01*
X95321068Y44381100D01*
X95252735Y44253258D01*
X95102601Y44482839D01*
X94904895Y44684500D01*
X94671646Y44843715D01*
X94411818Y44954367D01*
X94329039Y44971904D01*
X94107000Y44849915D01*
X94107000Y43307000D01*
X94127000Y43307000D01*
X94127000Y43053000D01*
X94107000Y43053000D01*
X94107000Y43033000D01*
X93853000Y43033000D01*
X93853000Y43053000D01*
X92545000Y43053000D01*
X92545000Y42653000D01*
X92597350Y42375486D01*
X92702834Y42113517D01*
X92857399Y41877161D01*
X93055105Y41675500D01*
X93288354Y41516285D01*
X93548182Y41405633D01*
X93574771Y41400000D01*
X92143711Y41400000D01*
X92099774Y41443937D01*
X91930256Y41557205D01*
X91741898Y41635226D01*
X91541939Y41675000D01*
X91338061Y41675000D01*
X91138102Y41635226D01*
X90949744Y41557205D01*
X90780226Y41443937D01*
X90636063Y41299774D01*
X90522795Y41130256D01*
X90444774Y40941898D01*
X90405000Y40741939D01*
X90405000Y40538061D01*
X90444774Y40338102D01*
X90522795Y40149744D01*
X90535987Y40130000D01*
X87637595Y40130000D01*
X87600706Y40199014D01*
X87415134Y40425134D01*
X87189014Y40610706D01*
X87134209Y40640000D01*
X87189014Y40669294D01*
X87415134Y40854866D01*
X87600706Y41080986D01*
X87738599Y41338966D01*
X87823513Y41618889D01*
X87852185Y41910000D01*
X87823513Y42201111D01*
X87738599Y42481034D01*
X87600706Y42739014D01*
X87415134Y42965134D01*
X87385313Y42989607D01*
X87454180Y43010498D01*
X87564494Y43069463D01*
X87661185Y43148815D01*
X87740537Y43245506D01*
X87799502Y43355820D01*
X87835812Y43475518D01*
X87848072Y43600000D01*
X87847490Y43707000D01*
X92545000Y43707000D01*
X92545000Y43307000D01*
X93853000Y43307000D01*
X93853000Y44849915D01*
X93630961Y44971904D01*
X93548182Y44954367D01*
X93288354Y44843715D01*
X93055105Y44684500D01*
X92857399Y44482839D01*
X92702834Y44246483D01*
X92597350Y43984514D01*
X92545000Y43707000D01*
X87847490Y43707000D01*
X87845000Y44164250D01*
X87686250Y44323000D01*
X86487000Y44323000D01*
X86487000Y44303000D01*
X86233000Y44303000D01*
X86233000Y44323000D01*
X85033750Y44323000D01*
X84875000Y44164250D01*
X84871928Y43600000D01*
X84884188Y43475518D01*
X84920498Y43355820D01*
X84979463Y43245506D01*
X85058815Y43148815D01*
X85155506Y43069463D01*
X85265820Y43010498D01*
X85334687Y42989607D01*
X85304866Y42965134D01*
X85119294Y42739014D01*
X84981401Y42481034D01*
X84896487Y42201111D01*
X84867815Y41910000D01*
X80670000Y41910000D01*
X80670000Y45300000D01*
X84871928Y45300000D01*
X84875000Y44735750D01*
X85033750Y44577000D01*
X86233000Y44577000D01*
X86233000Y45776250D01*
X86487000Y45776250D01*
X86487000Y44577000D01*
X87686250Y44577000D01*
X87845000Y44735750D01*
X87848072Y45300000D01*
X87835812Y45424482D01*
X87799502Y45544180D01*
X87740537Y45654494D01*
X87661185Y45751185D01*
X87564494Y45830537D01*
X87454180Y45889502D01*
X87334482Y45925812D01*
X87210000Y45938072D01*
X86645750Y45935000D01*
X86487000Y45776250D01*
X86233000Y45776250D01*
X86074250Y45935000D01*
X85510000Y45938072D01*
X85385518Y45925812D01*
X85265820Y45889502D01*
X85155506Y45830537D01*
X85058815Y45751185D01*
X84979463Y45654494D01*
X84920498Y45544180D01*
X84884188Y45424482D01*
X84871928Y45300000D01*
X80670000Y45300000D01*
X80670000Y51528128D01*
X82093000Y51528128D01*
X82093000Y51087872D01*
X82178890Y50656075D01*
X82347369Y50249331D01*
X82591962Y49883271D01*
X82903271Y49571962D01*
X83269331Y49327369D01*
X83676075Y49158890D01*
X84107872Y49073000D01*
X84548128Y49073000D01*
X84979925Y49158890D01*
X85386669Y49327369D01*
X85752729Y49571962D01*
X86064038Y49883271D01*
X86308631Y50249331D01*
X86477110Y50656075D01*
X86563000Y51087872D01*
X86563000Y51528128D01*
X145593000Y51528128D01*
X145593000Y51087872D01*
X145678890Y50656075D01*
X145847369Y50249331D01*
X146091962Y49883271D01*
X146403271Y49571962D01*
X146769331Y49327369D01*
X147176075Y49158890D01*
X147607872Y49073000D01*
X148048128Y49073000D01*
X148479925Y49158890D01*
X148886669Y49327369D01*
X149252729Y49571962D01*
X149564038Y49883271D01*
X149808631Y50249331D01*
X149977110Y50656075D01*
X150063000Y51087872D01*
X150063000Y51528128D01*
X149977110Y51959925D01*
X149808631Y52366669D01*
X149564038Y52732729D01*
X149252729Y53044038D01*
X148886669Y53288631D01*
X148479925Y53457110D01*
X148048128Y53543000D01*
X147607872Y53543000D01*
X147176075Y53457110D01*
X146769331Y53288631D01*
X146403271Y53044038D01*
X146091962Y52732729D01*
X145847369Y52366669D01*
X145678890Y51959925D01*
X145593000Y51528128D01*
X86563000Y51528128D01*
X86477110Y51959925D01*
X86308631Y52366669D01*
X86064038Y52732729D01*
X85752729Y53044038D01*
X85386669Y53288631D01*
X84979925Y53457110D01*
X84548128Y53543000D01*
X84107872Y53543000D01*
X83676075Y53457110D01*
X83269331Y53288631D01*
X82903271Y53044038D01*
X82591962Y52732729D01*
X82347369Y52366669D01*
X82178890Y51959925D01*
X82093000Y51528128D01*
X80670000Y51528128D01*
X80670000Y54966000D01*
X151740000Y54966000D01*
X151740001Y50832428D01*
G36*
X118455105Y44684500D02*
G01*
X118257399Y44482839D01*
X118102834Y44246483D01*
X117997350Y43984514D01*
X117945000Y43707000D01*
X117945000Y43307000D01*
X119253000Y43307000D01*
X119253000Y43327000D01*
X119507000Y43327000D01*
X119507000Y43307000D01*
X119527000Y43307000D01*
X119527000Y43053000D01*
X119507000Y43053000D01*
X119507000Y43033000D01*
X119253000Y43033000D01*
X119253000Y43053000D01*
X117945000Y43053000D01*
X117945000Y42653000D01*
X117997350Y42375486D01*
X118102834Y42113517D01*
X118257399Y41877161D01*
X118455105Y41675500D01*
X118688354Y41516285D01*
X118948182Y41405633D01*
X118974771Y41400000D01*
X117543711Y41400000D01*
X117499774Y41443937D01*
X117330256Y41557205D01*
X117141898Y41635226D01*
X116941939Y41675000D01*
X116738061Y41675000D01*
X116538102Y41635226D01*
X116349744Y41557205D01*
X116180226Y41443937D01*
X116036063Y41299774D01*
X115922795Y41130256D01*
X115844774Y40941898D01*
X115805000Y40741939D01*
X115805000Y40538061D01*
X115844774Y40338102D01*
X115922795Y40149744D01*
X115935987Y40130000D01*
X114614803Y40130000D01*
X112871923Y41872878D01*
X112958932Y41978899D01*
X113092182Y42228192D01*
X113174236Y42498691D01*
X113195000Y42709509D01*
X113195000Y43650492D01*
X113174236Y43861309D01*
X113092182Y44131808D01*
X112958932Y44381101D01*
X112779607Y44599608D01*
X112649968Y44706000D01*
X118486602Y44706000D01*
X118455105Y44684500D01*
X118455105Y44684500D01*
G37*
X118455105Y44684500D02*
X118257399Y44482839D01*
X118102834Y44246483D01*
X117997350Y43984514D01*
X117945000Y43707000D01*
X117945000Y43307000D01*
X119253000Y43307000D01*
X119253000Y43327000D01*
X119507000Y43327000D01*
X119507000Y43307000D01*
X119527000Y43307000D01*
X119527000Y43053000D01*
X119507000Y43053000D01*
X119507000Y43033000D01*
X119253000Y43033000D01*
X119253000Y43053000D01*
X117945000Y43053000D01*
X117945000Y42653000D01*
X117997350Y42375486D01*
X118102834Y42113517D01*
X118257399Y41877161D01*
X118455105Y41675500D01*
X118688354Y41516285D01*
X118948182Y41405633D01*
X118974771Y41400000D01*
X117543711Y41400000D01*
X117499774Y41443937D01*
X117330256Y41557205D01*
X117141898Y41635226D01*
X116941939Y41675000D01*
X116738061Y41675000D01*
X116538102Y41635226D01*
X116349744Y41557205D01*
X116180226Y41443937D01*
X116036063Y41299774D01*
X115922795Y41130256D01*
X115844774Y40941898D01*
X115805000Y40741939D01*
X115805000Y40538061D01*
X115844774Y40338102D01*
X115922795Y40149744D01*
X115935987Y40130000D01*
X114614803Y40130000D01*
X112871923Y41872878D01*
X112958932Y41978899D01*
X113092182Y42228192D01*
X113174236Y42498691D01*
X113195000Y42709509D01*
X113195000Y43650492D01*
X113174236Y43861309D01*
X113092182Y44131808D01*
X112958932Y44381101D01*
X112779607Y44599608D01*
X112649968Y44706000D01*
X118486602Y44706000D01*
X118455105Y44684500D01*
M02*
