%TF.GenerationSoftware,KiCad,Pcbnew,(5.1.2-1)-1*%
%TF.CreationDate,2023-02-25T22:44:41-05:00*%
%TF.ProjectId,7seg,37736567-2e6b-4696-9361-645f70636258,rev?*%
%TF.SameCoordinates,Original*%
%TF.FileFunction,Soldermask,Bot*%
%TF.FilePolarity,Negative*%
%FSLAX46Y46*%
G04 Gerber Fmt 4.6, Leading zero omitted, Abs format (unit mm)*
G04 Created by KiCad (PCBNEW (5.1.2-1)-1) date 2023-02-25 22:44:41*
%MOMM*%
%LPD*%
G04 APERTURE LIST*
%ADD10C,0.100000*%
G04 APERTURE END LIST*
D10*
G36*
X148457256Y28278702D02*
G01*
X148563579Y28257553D01*
X148864042Y28133097D01*
X149134451Y27952415D01*
X149364415Y27722451D01*
X149545097Y27452042D01*
X149669553Y27151579D01*
X149733000Y26832609D01*
X149733000Y26507391D01*
X149669553Y26188421D01*
X149545097Y25887958D01*
X149364415Y25617549D01*
X149134451Y25387585D01*
X148864042Y25206903D01*
X148563579Y25082447D01*
X148457256Y25061298D01*
X148244611Y25019000D01*
X147919389Y25019000D01*
X147706744Y25061298D01*
X147600421Y25082447D01*
X147299958Y25206903D01*
X147029549Y25387585D01*
X146799585Y25617549D01*
X146618903Y25887958D01*
X146494447Y26188421D01*
X146431000Y26507391D01*
X146431000Y26832609D01*
X146494447Y27151579D01*
X146618903Y27452042D01*
X146799585Y27722451D01*
X147029549Y27952415D01*
X147299958Y28133097D01*
X147600421Y28257553D01*
X147706744Y28278702D01*
X147919389Y28321000D01*
X148244611Y28321000D01*
X148457256Y28278702D01*
X148457256Y28278702D01*
G37*
G36*
X84703256Y28278702D02*
G01*
X84809579Y28257553D01*
X85110042Y28133097D01*
X85380451Y27952415D01*
X85610415Y27722451D01*
X85791097Y27452042D01*
X85915553Y27151579D01*
X85979000Y26832609D01*
X85979000Y26507391D01*
X85915553Y26188421D01*
X85791097Y25887958D01*
X85610415Y25617549D01*
X85380451Y25387585D01*
X85110042Y25206903D01*
X84809579Y25082447D01*
X84703256Y25061298D01*
X84490611Y25019000D01*
X84165389Y25019000D01*
X83952744Y25061298D01*
X83846421Y25082447D01*
X83545958Y25206903D01*
X83275549Y25387585D01*
X83045585Y25617549D01*
X82864903Y25887958D01*
X82740447Y26188421D01*
X82677000Y26507391D01*
X82677000Y26832609D01*
X82740447Y27151579D01*
X82864903Y27452042D01*
X83045585Y27722451D01*
X83275549Y27952415D01*
X83545958Y28133097D01*
X83846421Y28257553D01*
X83952744Y28278702D01*
X84165389Y28321000D01*
X84490611Y28321000D01*
X84703256Y28278702D01*
X84703256Y28278702D01*
G37*
G36*
X129650442Y30104482D02*
G01*
X129716627Y30097963D01*
X129886466Y30046443D01*
X130042991Y29962778D01*
X130078729Y29933448D01*
X130180186Y29850186D01*
X130263448Y29748729D01*
X130292778Y29712991D01*
X130376443Y29556466D01*
X130427963Y29386627D01*
X130445359Y29210000D01*
X130427963Y29033373D01*
X130376443Y28863534D01*
X130292778Y28707009D01*
X130263448Y28671271D01*
X130180186Y28569814D01*
X130078729Y28486552D01*
X130042991Y28457222D01*
X129886466Y28373557D01*
X129716627Y28322037D01*
X129650442Y28315518D01*
X129584260Y28309000D01*
X129495740Y28309000D01*
X129429558Y28315518D01*
X129363373Y28322037D01*
X129193534Y28373557D01*
X129037009Y28457222D01*
X129001271Y28486552D01*
X128899814Y28569814D01*
X128816552Y28671271D01*
X128787222Y28707009D01*
X128703557Y28863534D01*
X128652037Y29033373D01*
X128634641Y29210000D01*
X128652037Y29386627D01*
X128703557Y29556466D01*
X128787222Y29712991D01*
X128816552Y29748729D01*
X128899814Y29850186D01*
X129001271Y29933448D01*
X129037009Y29962778D01*
X129193534Y30046443D01*
X129363373Y30097963D01*
X129429558Y30104482D01*
X129495740Y30111000D01*
X129584260Y30111000D01*
X129650442Y30104482D01*
X129650442Y30104482D01*
G37*
G36*
X127110442Y30104482D02*
G01*
X127176627Y30097963D01*
X127346466Y30046443D01*
X127502991Y29962778D01*
X127538729Y29933448D01*
X127640186Y29850186D01*
X127723448Y29748729D01*
X127752778Y29712991D01*
X127836443Y29556466D01*
X127887963Y29386627D01*
X127905359Y29210000D01*
X127887963Y29033373D01*
X127836443Y28863534D01*
X127752778Y28707009D01*
X127723448Y28671271D01*
X127640186Y28569814D01*
X127538729Y28486552D01*
X127502991Y28457222D01*
X127346466Y28373557D01*
X127176627Y28322037D01*
X127110442Y28315518D01*
X127044260Y28309000D01*
X126955740Y28309000D01*
X126889558Y28315518D01*
X126823373Y28322037D01*
X126653534Y28373557D01*
X126497009Y28457222D01*
X126461271Y28486552D01*
X126359814Y28569814D01*
X126276552Y28671271D01*
X126247222Y28707009D01*
X126163557Y28863534D01*
X126112037Y29033373D01*
X126094641Y29210000D01*
X126112037Y29386627D01*
X126163557Y29556466D01*
X126247222Y29712991D01*
X126276552Y29748729D01*
X126359814Y29850186D01*
X126461271Y29933448D01*
X126497009Y29962778D01*
X126653534Y30046443D01*
X126823373Y30097963D01*
X126889558Y30104482D01*
X126955740Y30111000D01*
X127044260Y30111000D01*
X127110442Y30104482D01*
X127110442Y30104482D01*
G37*
G36*
X124570442Y30104482D02*
G01*
X124636627Y30097963D01*
X124806466Y30046443D01*
X124962991Y29962778D01*
X124998729Y29933448D01*
X125100186Y29850186D01*
X125183448Y29748729D01*
X125212778Y29712991D01*
X125296443Y29556466D01*
X125347963Y29386627D01*
X125365359Y29210000D01*
X125347963Y29033373D01*
X125296443Y28863534D01*
X125212778Y28707009D01*
X125183448Y28671271D01*
X125100186Y28569814D01*
X124998729Y28486552D01*
X124962991Y28457222D01*
X124806466Y28373557D01*
X124636627Y28322037D01*
X124570442Y28315518D01*
X124504260Y28309000D01*
X124415740Y28309000D01*
X124349558Y28315518D01*
X124283373Y28322037D01*
X124113534Y28373557D01*
X123957009Y28457222D01*
X123921271Y28486552D01*
X123819814Y28569814D01*
X123736552Y28671271D01*
X123707222Y28707009D01*
X123623557Y28863534D01*
X123572037Y29033373D01*
X123554641Y29210000D01*
X123572037Y29386627D01*
X123623557Y29556466D01*
X123707222Y29712991D01*
X123736552Y29748729D01*
X123819814Y29850186D01*
X123921271Y29933448D01*
X123957009Y29962778D01*
X124113534Y30046443D01*
X124283373Y30097963D01*
X124349558Y30104482D01*
X124415740Y30111000D01*
X124504260Y30111000D01*
X124570442Y30104482D01*
X124570442Y30104482D01*
G37*
G36*
X122030442Y30104482D02*
G01*
X122096627Y30097963D01*
X122266466Y30046443D01*
X122422991Y29962778D01*
X122458729Y29933448D01*
X122560186Y29850186D01*
X122643448Y29748729D01*
X122672778Y29712991D01*
X122756443Y29556466D01*
X122807963Y29386627D01*
X122825359Y29210000D01*
X122807963Y29033373D01*
X122756443Y28863534D01*
X122672778Y28707009D01*
X122643448Y28671271D01*
X122560186Y28569814D01*
X122458729Y28486552D01*
X122422991Y28457222D01*
X122266466Y28373557D01*
X122096627Y28322037D01*
X122030442Y28315518D01*
X121964260Y28309000D01*
X121875740Y28309000D01*
X121809558Y28315518D01*
X121743373Y28322037D01*
X121573534Y28373557D01*
X121417009Y28457222D01*
X121381271Y28486552D01*
X121279814Y28569814D01*
X121196552Y28671271D01*
X121167222Y28707009D01*
X121083557Y28863534D01*
X121032037Y29033373D01*
X121014641Y29210000D01*
X121032037Y29386627D01*
X121083557Y29556466D01*
X121167222Y29712991D01*
X121196552Y29748729D01*
X121279814Y29850186D01*
X121381271Y29933448D01*
X121417009Y29962778D01*
X121573534Y30046443D01*
X121743373Y30097963D01*
X121809558Y30104482D01*
X121875740Y30111000D01*
X121964260Y30111000D01*
X122030442Y30104482D01*
X122030442Y30104482D01*
G37*
G36*
X119490442Y30104482D02*
G01*
X119556627Y30097963D01*
X119726466Y30046443D01*
X119882991Y29962778D01*
X119918729Y29933448D01*
X120020186Y29850186D01*
X120103448Y29748729D01*
X120132778Y29712991D01*
X120216443Y29556466D01*
X120267963Y29386627D01*
X120285359Y29210000D01*
X120267963Y29033373D01*
X120216443Y28863534D01*
X120132778Y28707009D01*
X120103448Y28671271D01*
X120020186Y28569814D01*
X119918729Y28486552D01*
X119882991Y28457222D01*
X119726466Y28373557D01*
X119556627Y28322037D01*
X119490442Y28315518D01*
X119424260Y28309000D01*
X119335740Y28309000D01*
X119269558Y28315518D01*
X119203373Y28322037D01*
X119033534Y28373557D01*
X118877009Y28457222D01*
X118841271Y28486552D01*
X118739814Y28569814D01*
X118656552Y28671271D01*
X118627222Y28707009D01*
X118543557Y28863534D01*
X118492037Y29033373D01*
X118474641Y29210000D01*
X118492037Y29386627D01*
X118543557Y29556466D01*
X118627222Y29712991D01*
X118656552Y29748729D01*
X118739814Y29850186D01*
X118841271Y29933448D01*
X118877009Y29962778D01*
X119033534Y30046443D01*
X119203373Y30097963D01*
X119269558Y30104482D01*
X119335740Y30111000D01*
X119424260Y30111000D01*
X119490442Y30104482D01*
X119490442Y30104482D01*
G37*
G36*
X117741000Y28309000D02*
G01*
X115939000Y28309000D01*
X115939000Y30111000D01*
X117741000Y30111000D01*
X117741000Y28309000D01*
X117741000Y28309000D01*
G37*
G36*
X109330442Y30104482D02*
G01*
X109396627Y30097963D01*
X109566466Y30046443D01*
X109722991Y29962778D01*
X109758729Y29933448D01*
X109860186Y29850186D01*
X109943448Y29748729D01*
X109972778Y29712991D01*
X110056443Y29556466D01*
X110107963Y29386627D01*
X110125359Y29210000D01*
X110107963Y29033373D01*
X110056443Y28863534D01*
X109972778Y28707009D01*
X109943448Y28671271D01*
X109860186Y28569814D01*
X109758729Y28486552D01*
X109722991Y28457222D01*
X109566466Y28373557D01*
X109396627Y28322037D01*
X109330442Y28315518D01*
X109264260Y28309000D01*
X109175740Y28309000D01*
X109109558Y28315518D01*
X109043373Y28322037D01*
X108873534Y28373557D01*
X108717009Y28457222D01*
X108681271Y28486552D01*
X108579814Y28569814D01*
X108496552Y28671271D01*
X108467222Y28707009D01*
X108383557Y28863534D01*
X108332037Y29033373D01*
X108314641Y29210000D01*
X108332037Y29386627D01*
X108383557Y29556466D01*
X108467222Y29712991D01*
X108496552Y29748729D01*
X108579814Y29850186D01*
X108681271Y29933448D01*
X108717009Y29962778D01*
X108873534Y30046443D01*
X109043373Y30097963D01*
X109109558Y30104482D01*
X109175740Y30111000D01*
X109264260Y30111000D01*
X109330442Y30104482D01*
X109330442Y30104482D01*
G37*
G36*
X106790442Y30104482D02*
G01*
X106856627Y30097963D01*
X107026466Y30046443D01*
X107182991Y29962778D01*
X107218729Y29933448D01*
X107320186Y29850186D01*
X107403448Y29748729D01*
X107432778Y29712991D01*
X107516443Y29556466D01*
X107567963Y29386627D01*
X107585359Y29210000D01*
X107567963Y29033373D01*
X107516443Y28863534D01*
X107432778Y28707009D01*
X107403448Y28671271D01*
X107320186Y28569814D01*
X107218729Y28486552D01*
X107182991Y28457222D01*
X107026466Y28373557D01*
X106856627Y28322037D01*
X106790442Y28315518D01*
X106724260Y28309000D01*
X106635740Y28309000D01*
X106569558Y28315518D01*
X106503373Y28322037D01*
X106333534Y28373557D01*
X106177009Y28457222D01*
X106141271Y28486552D01*
X106039814Y28569814D01*
X105956552Y28671271D01*
X105927222Y28707009D01*
X105843557Y28863534D01*
X105792037Y29033373D01*
X105774641Y29210000D01*
X105792037Y29386627D01*
X105843557Y29556466D01*
X105927222Y29712991D01*
X105956552Y29748729D01*
X106039814Y29850186D01*
X106141271Y29933448D01*
X106177009Y29962778D01*
X106333534Y30046443D01*
X106503373Y30097963D01*
X106569558Y30104482D01*
X106635740Y30111000D01*
X106724260Y30111000D01*
X106790442Y30104482D01*
X106790442Y30104482D01*
G37*
G36*
X104250442Y30104482D02*
G01*
X104316627Y30097963D01*
X104486466Y30046443D01*
X104642991Y29962778D01*
X104678729Y29933448D01*
X104780186Y29850186D01*
X104863448Y29748729D01*
X104892778Y29712991D01*
X104976443Y29556466D01*
X105027963Y29386627D01*
X105045359Y29210000D01*
X105027963Y29033373D01*
X104976443Y28863534D01*
X104892778Y28707009D01*
X104863448Y28671271D01*
X104780186Y28569814D01*
X104678729Y28486552D01*
X104642991Y28457222D01*
X104486466Y28373557D01*
X104316627Y28322037D01*
X104250442Y28315518D01*
X104184260Y28309000D01*
X104095740Y28309000D01*
X104029558Y28315518D01*
X103963373Y28322037D01*
X103793534Y28373557D01*
X103637009Y28457222D01*
X103601271Y28486552D01*
X103499814Y28569814D01*
X103416552Y28671271D01*
X103387222Y28707009D01*
X103303557Y28863534D01*
X103252037Y29033373D01*
X103234641Y29210000D01*
X103252037Y29386627D01*
X103303557Y29556466D01*
X103387222Y29712991D01*
X103416552Y29748729D01*
X103499814Y29850186D01*
X103601271Y29933448D01*
X103637009Y29962778D01*
X103793534Y30046443D01*
X103963373Y30097963D01*
X104029558Y30104482D01*
X104095740Y30111000D01*
X104184260Y30111000D01*
X104250442Y30104482D01*
X104250442Y30104482D01*
G37*
G36*
X101710442Y30104482D02*
G01*
X101776627Y30097963D01*
X101946466Y30046443D01*
X102102991Y29962778D01*
X102138729Y29933448D01*
X102240186Y29850186D01*
X102323448Y29748729D01*
X102352778Y29712991D01*
X102436443Y29556466D01*
X102487963Y29386627D01*
X102505359Y29210000D01*
X102487963Y29033373D01*
X102436443Y28863534D01*
X102352778Y28707009D01*
X102323448Y28671271D01*
X102240186Y28569814D01*
X102138729Y28486552D01*
X102102991Y28457222D01*
X101946466Y28373557D01*
X101776627Y28322037D01*
X101710442Y28315518D01*
X101644260Y28309000D01*
X101555740Y28309000D01*
X101489558Y28315518D01*
X101423373Y28322037D01*
X101253534Y28373557D01*
X101097009Y28457222D01*
X101061271Y28486552D01*
X100959814Y28569814D01*
X100876552Y28671271D01*
X100847222Y28707009D01*
X100763557Y28863534D01*
X100712037Y29033373D01*
X100694641Y29210000D01*
X100712037Y29386627D01*
X100763557Y29556466D01*
X100847222Y29712991D01*
X100876552Y29748729D01*
X100959814Y29850186D01*
X101061271Y29933448D01*
X101097009Y29962778D01*
X101253534Y30046443D01*
X101423373Y30097963D01*
X101489558Y30104482D01*
X101555740Y30111000D01*
X101644260Y30111000D01*
X101710442Y30104482D01*
X101710442Y30104482D01*
G37*
G36*
X99170442Y30104482D02*
G01*
X99236627Y30097963D01*
X99406466Y30046443D01*
X99562991Y29962778D01*
X99598729Y29933448D01*
X99700186Y29850186D01*
X99783448Y29748729D01*
X99812778Y29712991D01*
X99896443Y29556466D01*
X99947963Y29386627D01*
X99965359Y29210000D01*
X99947963Y29033373D01*
X99896443Y28863534D01*
X99812778Y28707009D01*
X99783448Y28671271D01*
X99700186Y28569814D01*
X99598729Y28486552D01*
X99562991Y28457222D01*
X99406466Y28373557D01*
X99236627Y28322037D01*
X99170442Y28315518D01*
X99104260Y28309000D01*
X99015740Y28309000D01*
X98949558Y28315518D01*
X98883373Y28322037D01*
X98713534Y28373557D01*
X98557009Y28457222D01*
X98521271Y28486552D01*
X98419814Y28569814D01*
X98336552Y28671271D01*
X98307222Y28707009D01*
X98223557Y28863534D01*
X98172037Y29033373D01*
X98154641Y29210000D01*
X98172037Y29386627D01*
X98223557Y29556466D01*
X98307222Y29712991D01*
X98336552Y29748729D01*
X98419814Y29850186D01*
X98521271Y29933448D01*
X98557009Y29962778D01*
X98713534Y30046443D01*
X98883373Y30097963D01*
X98949558Y30104482D01*
X99015740Y30111000D01*
X99104260Y30111000D01*
X99170442Y30104482D01*
X99170442Y30104482D01*
G37*
G36*
X96630442Y30104482D02*
G01*
X96696627Y30097963D01*
X96866466Y30046443D01*
X97022991Y29962778D01*
X97058729Y29933448D01*
X97160186Y29850186D01*
X97243448Y29748729D01*
X97272778Y29712991D01*
X97356443Y29556466D01*
X97407963Y29386627D01*
X97425359Y29210000D01*
X97407963Y29033373D01*
X97356443Y28863534D01*
X97272778Y28707009D01*
X97243448Y28671271D01*
X97160186Y28569814D01*
X97058729Y28486552D01*
X97022991Y28457222D01*
X96866466Y28373557D01*
X96696627Y28322037D01*
X96630442Y28315518D01*
X96564260Y28309000D01*
X96475740Y28309000D01*
X96409558Y28315518D01*
X96343373Y28322037D01*
X96173534Y28373557D01*
X96017009Y28457222D01*
X95981271Y28486552D01*
X95879814Y28569814D01*
X95796552Y28671271D01*
X95767222Y28707009D01*
X95683557Y28863534D01*
X95632037Y29033373D01*
X95614641Y29210000D01*
X95632037Y29386627D01*
X95683557Y29556466D01*
X95767222Y29712991D01*
X95796552Y29748729D01*
X95879814Y29850186D01*
X95981271Y29933448D01*
X96017009Y29962778D01*
X96173534Y30046443D01*
X96343373Y30097963D01*
X96409558Y30104482D01*
X96475740Y30111000D01*
X96564260Y30111000D01*
X96630442Y30104482D01*
X96630442Y30104482D01*
G37*
G36*
X94090442Y30104482D02*
G01*
X94156627Y30097963D01*
X94326466Y30046443D01*
X94482991Y29962778D01*
X94518729Y29933448D01*
X94620186Y29850186D01*
X94703448Y29748729D01*
X94732778Y29712991D01*
X94816443Y29556466D01*
X94867963Y29386627D01*
X94885359Y29210000D01*
X94867963Y29033373D01*
X94816443Y28863534D01*
X94732778Y28707009D01*
X94703448Y28671271D01*
X94620186Y28569814D01*
X94518729Y28486552D01*
X94482991Y28457222D01*
X94326466Y28373557D01*
X94156627Y28322037D01*
X94090442Y28315518D01*
X94024260Y28309000D01*
X93935740Y28309000D01*
X93869558Y28315518D01*
X93803373Y28322037D01*
X93633534Y28373557D01*
X93477009Y28457222D01*
X93441271Y28486552D01*
X93339814Y28569814D01*
X93256552Y28671271D01*
X93227222Y28707009D01*
X93143557Y28863534D01*
X93092037Y29033373D01*
X93074641Y29210000D01*
X93092037Y29386627D01*
X93143557Y29556466D01*
X93227222Y29712991D01*
X93256552Y29748729D01*
X93339814Y29850186D01*
X93441271Y29933448D01*
X93477009Y29962778D01*
X93633534Y30046443D01*
X93803373Y30097963D01*
X93869558Y30104482D01*
X93935740Y30111000D01*
X94024260Y30111000D01*
X94090442Y30104482D01*
X94090442Y30104482D01*
G37*
G36*
X92341000Y28309000D02*
G01*
X90539000Y28309000D01*
X90539000Y30111000D01*
X92341000Y30111000D01*
X92341000Y28309000D01*
X92341000Y28309000D01*
G37*
G36*
X134730442Y30104482D02*
G01*
X134796627Y30097963D01*
X134966466Y30046443D01*
X135122991Y29962778D01*
X135158729Y29933448D01*
X135260186Y29850186D01*
X135343448Y29748729D01*
X135372778Y29712991D01*
X135456443Y29556466D01*
X135507963Y29386627D01*
X135525359Y29210000D01*
X135507963Y29033373D01*
X135456443Y28863534D01*
X135372778Y28707009D01*
X135343448Y28671271D01*
X135260186Y28569814D01*
X135158729Y28486552D01*
X135122991Y28457222D01*
X134966466Y28373557D01*
X134796627Y28322037D01*
X134730442Y28315518D01*
X134664260Y28309000D01*
X134575740Y28309000D01*
X134509558Y28315518D01*
X134443373Y28322037D01*
X134273534Y28373557D01*
X134117009Y28457222D01*
X134081271Y28486552D01*
X133979814Y28569814D01*
X133896552Y28671271D01*
X133867222Y28707009D01*
X133783557Y28863534D01*
X133732037Y29033373D01*
X133714641Y29210000D01*
X133732037Y29386627D01*
X133783557Y29556466D01*
X133867222Y29712991D01*
X133896552Y29748729D01*
X133979814Y29850186D01*
X134081271Y29933448D01*
X134117009Y29962778D01*
X134273534Y30046443D01*
X134443373Y30097963D01*
X134509558Y30104482D01*
X134575740Y30111000D01*
X134664260Y30111000D01*
X134730442Y30104482D01*
X134730442Y30104482D01*
G37*
G36*
X132190442Y30104482D02*
G01*
X132256627Y30097963D01*
X132426466Y30046443D01*
X132582991Y29962778D01*
X132618729Y29933448D01*
X132720186Y29850186D01*
X132803448Y29748729D01*
X132832778Y29712991D01*
X132916443Y29556466D01*
X132967963Y29386627D01*
X132985359Y29210000D01*
X132967963Y29033373D01*
X132916443Y28863534D01*
X132832778Y28707009D01*
X132803448Y28671271D01*
X132720186Y28569814D01*
X132618729Y28486552D01*
X132582991Y28457222D01*
X132426466Y28373557D01*
X132256627Y28322037D01*
X132190442Y28315518D01*
X132124260Y28309000D01*
X132035740Y28309000D01*
X131969558Y28315518D01*
X131903373Y28322037D01*
X131733534Y28373557D01*
X131577009Y28457222D01*
X131541271Y28486552D01*
X131439814Y28569814D01*
X131356552Y28671271D01*
X131327222Y28707009D01*
X131243557Y28863534D01*
X131192037Y29033373D01*
X131174641Y29210000D01*
X131192037Y29386627D01*
X131243557Y29556466D01*
X131327222Y29712991D01*
X131356552Y29748729D01*
X131439814Y29850186D01*
X131541271Y29933448D01*
X131577009Y29962778D01*
X131733534Y30046443D01*
X131903373Y30097963D01*
X131969558Y30104482D01*
X132035740Y30111000D01*
X132124260Y30111000D01*
X132190442Y30104482D01*
X132190442Y30104482D01*
G37*
G36*
X86470442Y35184482D02*
G01*
X86536627Y35177963D01*
X86706466Y35126443D01*
X86706468Y35126442D01*
X86721893Y35118197D01*
X86862991Y35042778D01*
X86898729Y35013448D01*
X87000186Y34930186D01*
X87080139Y34832761D01*
X87112778Y34792991D01*
X87196443Y34636466D01*
X87247963Y34466627D01*
X87265359Y34290000D01*
X87247963Y34113373D01*
X87196443Y33943534D01*
X87112778Y33787009D01*
X87083448Y33751271D01*
X87000186Y33649814D01*
X86898729Y33566552D01*
X86862991Y33537222D01*
X86706466Y33453557D01*
X86536627Y33402037D01*
X86470442Y33395518D01*
X86404260Y33389000D01*
X86315740Y33389000D01*
X86249558Y33395518D01*
X86183373Y33402037D01*
X86013534Y33453557D01*
X85857009Y33537222D01*
X85821271Y33566552D01*
X85719814Y33649814D01*
X85636552Y33751271D01*
X85607222Y33787009D01*
X85523557Y33943534D01*
X85472037Y34113373D01*
X85454641Y34290000D01*
X85472037Y34466627D01*
X85523557Y34636466D01*
X85607222Y34792991D01*
X85639861Y34832761D01*
X85719814Y34930186D01*
X85821271Y35013448D01*
X85857009Y35042778D01*
X85998107Y35118197D01*
X86013532Y35126442D01*
X86013534Y35126443D01*
X86183373Y35177963D01*
X86249558Y35184482D01*
X86315740Y35191000D01*
X86404260Y35191000D01*
X86470442Y35184482D01*
X86470442Y35184482D01*
G37*
G36*
X132246822Y36798687D02*
G01*
X132407241Y36750024D01*
X132555077Y36671005D01*
X132684659Y36564659D01*
X132791004Y36435078D01*
X132791005Y36435076D01*
X132870024Y36287242D01*
X132918687Y36126823D01*
X132931000Y36001804D01*
X132931000Y35118197D01*
X132918687Y34993178D01*
X132870024Y34832758D01*
X132856374Y34807221D01*
X132791004Y34684922D01*
X132684659Y34555341D01*
X132555078Y34448996D01*
X132555076Y34448995D01*
X132407242Y34369976D01*
X132246823Y34321313D01*
X132080000Y34304883D01*
X131913178Y34321313D01*
X131752759Y34369976D01*
X131604925Y34448995D01*
X131604923Y34448996D01*
X131475342Y34555341D01*
X131368997Y34684922D01*
X131303627Y34807221D01*
X131289977Y34832758D01*
X131241314Y34993177D01*
X131229000Y35118197D01*
X131229000Y36001803D01*
X131241313Y36126822D01*
X131289976Y36287241D01*
X131368995Y36435077D01*
X131475341Y36564659D01*
X131583439Y36653373D01*
X131604922Y36671004D01*
X131620094Y36679114D01*
X131752758Y36750024D01*
X131913177Y36798687D01*
X132080000Y36815117D01*
X132246822Y36798687D01*
X132246822Y36798687D01*
G37*
G36*
X137326822Y36798687D02*
G01*
X137487241Y36750024D01*
X137635077Y36671005D01*
X137764659Y36564659D01*
X137871004Y36435078D01*
X137871005Y36435076D01*
X137950024Y36287242D01*
X137998687Y36126823D01*
X138011000Y36001804D01*
X138011000Y35118197D01*
X137998687Y34993178D01*
X137950024Y34832758D01*
X137936374Y34807221D01*
X137871004Y34684922D01*
X137764659Y34555341D01*
X137635078Y34448996D01*
X137635076Y34448995D01*
X137487242Y34369976D01*
X137326823Y34321313D01*
X137160000Y34304883D01*
X136993178Y34321313D01*
X136832759Y34369976D01*
X136684925Y34448995D01*
X136684923Y34448996D01*
X136555342Y34555341D01*
X136448997Y34684922D01*
X136383627Y34807221D01*
X136369977Y34832758D01*
X136321314Y34993177D01*
X136309000Y35118197D01*
X136309000Y36001803D01*
X136321313Y36126822D01*
X136369976Y36287241D01*
X136448995Y36435077D01*
X136555341Y36564659D01*
X136663439Y36653373D01*
X136684922Y36671004D01*
X136700094Y36679114D01*
X136832758Y36750024D01*
X136993177Y36798687D01*
X137160000Y36815117D01*
X137326822Y36798687D01*
X137326822Y36798687D01*
G37*
G36*
X134786822Y36798687D02*
G01*
X134947241Y36750024D01*
X135095077Y36671005D01*
X135224659Y36564659D01*
X135331004Y36435078D01*
X135331005Y36435076D01*
X135410024Y36287242D01*
X135458687Y36126823D01*
X135471000Y36001804D01*
X135471000Y35118197D01*
X135458687Y34993178D01*
X135410024Y34832758D01*
X135396374Y34807221D01*
X135331004Y34684922D01*
X135224659Y34555341D01*
X135095078Y34448996D01*
X135095076Y34448995D01*
X134947242Y34369976D01*
X134786823Y34321313D01*
X134620000Y34304883D01*
X134453178Y34321313D01*
X134292759Y34369976D01*
X134144925Y34448995D01*
X134144923Y34448996D01*
X134015342Y34555341D01*
X133908997Y34684922D01*
X133843627Y34807221D01*
X133829977Y34832758D01*
X133781314Y34993177D01*
X133769000Y35118197D01*
X133769000Y36001803D01*
X133781313Y36126822D01*
X133829976Y36287241D01*
X133908995Y36435077D01*
X134015341Y36564659D01*
X134123439Y36653373D01*
X134144922Y36671004D01*
X134160094Y36679114D01*
X134292758Y36750024D01*
X134453177Y36798687D01*
X134620000Y36815117D01*
X134786822Y36798687D01*
X134786822Y36798687D01*
G37*
G36*
X129706822Y36798687D02*
G01*
X129867241Y36750024D01*
X130015077Y36671005D01*
X130144659Y36564659D01*
X130251004Y36435078D01*
X130251005Y36435076D01*
X130330024Y36287242D01*
X130378687Y36126823D01*
X130391000Y36001804D01*
X130391000Y35118197D01*
X130378687Y34993178D01*
X130330024Y34832758D01*
X130316374Y34807221D01*
X130251004Y34684922D01*
X130144659Y34555341D01*
X130015078Y34448996D01*
X130015076Y34448995D01*
X129867242Y34369976D01*
X129706823Y34321313D01*
X129540000Y34304883D01*
X129373178Y34321313D01*
X129212759Y34369976D01*
X129064925Y34448995D01*
X129064923Y34448996D01*
X128935342Y34555341D01*
X128828997Y34684922D01*
X128763627Y34807221D01*
X128749977Y34832758D01*
X128701314Y34993177D01*
X128689000Y35118197D01*
X128689000Y36001803D01*
X128701313Y36126822D01*
X128749976Y36287241D01*
X128828995Y36435077D01*
X128935341Y36564659D01*
X129043439Y36653373D01*
X129064922Y36671004D01*
X129080094Y36679114D01*
X129212758Y36750024D01*
X129373177Y36798687D01*
X129540000Y36815117D01*
X129706822Y36798687D01*
X129706822Y36798687D01*
G37*
G36*
X127166822Y36798687D02*
G01*
X127327241Y36750024D01*
X127475077Y36671005D01*
X127604659Y36564659D01*
X127711004Y36435078D01*
X127711005Y36435076D01*
X127790024Y36287242D01*
X127838687Y36126823D01*
X127851000Y36001804D01*
X127851000Y35118197D01*
X127838687Y34993178D01*
X127790024Y34832758D01*
X127776374Y34807221D01*
X127711004Y34684922D01*
X127604659Y34555341D01*
X127475078Y34448996D01*
X127475076Y34448995D01*
X127327242Y34369976D01*
X127166823Y34321313D01*
X127000000Y34304883D01*
X126833178Y34321313D01*
X126672759Y34369976D01*
X126524925Y34448995D01*
X126524923Y34448996D01*
X126395342Y34555341D01*
X126288997Y34684922D01*
X126223627Y34807221D01*
X126209977Y34832758D01*
X126161314Y34993177D01*
X126149000Y35118197D01*
X126149000Y36001803D01*
X126161313Y36126822D01*
X126209976Y36287241D01*
X126288995Y36435077D01*
X126395341Y36564659D01*
X126503439Y36653373D01*
X126524922Y36671004D01*
X126540094Y36679114D01*
X126672758Y36750024D01*
X126833177Y36798687D01*
X127000000Y36815117D01*
X127166822Y36798687D01*
X127166822Y36798687D01*
G37*
G36*
X124626822Y36798687D02*
G01*
X124787241Y36750024D01*
X124935077Y36671005D01*
X125064659Y36564659D01*
X125171004Y36435078D01*
X125171005Y36435076D01*
X125250024Y36287242D01*
X125298687Y36126823D01*
X125311000Y36001804D01*
X125311000Y35118197D01*
X125298687Y34993178D01*
X125250024Y34832758D01*
X125236374Y34807221D01*
X125171004Y34684922D01*
X125064659Y34555341D01*
X124935078Y34448996D01*
X124935076Y34448995D01*
X124787242Y34369976D01*
X124626823Y34321313D01*
X124460000Y34304883D01*
X124293178Y34321313D01*
X124132759Y34369976D01*
X123984925Y34448995D01*
X123984923Y34448996D01*
X123855342Y34555341D01*
X123748997Y34684922D01*
X123683627Y34807221D01*
X123669977Y34832758D01*
X123621314Y34993177D01*
X123609000Y35118197D01*
X123609000Y36001803D01*
X123621313Y36126822D01*
X123669976Y36287241D01*
X123748995Y36435077D01*
X123855341Y36564659D01*
X123963439Y36653373D01*
X123984922Y36671004D01*
X124000094Y36679114D01*
X124132758Y36750024D01*
X124293177Y36798687D01*
X124460000Y36815117D01*
X124626822Y36798687D01*
X124626822Y36798687D01*
G37*
G36*
X122086822Y36798687D02*
G01*
X122247241Y36750024D01*
X122395077Y36671005D01*
X122524659Y36564659D01*
X122631004Y36435078D01*
X122631005Y36435076D01*
X122710024Y36287242D01*
X122758687Y36126823D01*
X122771000Y36001804D01*
X122771000Y35118197D01*
X122758687Y34993178D01*
X122710024Y34832758D01*
X122696374Y34807221D01*
X122631004Y34684922D01*
X122524659Y34555341D01*
X122395078Y34448996D01*
X122395076Y34448995D01*
X122247242Y34369976D01*
X122086823Y34321313D01*
X121920000Y34304883D01*
X121753178Y34321313D01*
X121592759Y34369976D01*
X121444925Y34448995D01*
X121444923Y34448996D01*
X121315342Y34555341D01*
X121208997Y34684922D01*
X121143627Y34807221D01*
X121129977Y34832758D01*
X121081314Y34993177D01*
X121069000Y35118197D01*
X121069000Y36001803D01*
X121081313Y36126822D01*
X121129976Y36287241D01*
X121208995Y36435077D01*
X121315341Y36564659D01*
X121423439Y36653373D01*
X121444922Y36671004D01*
X121460094Y36679114D01*
X121592758Y36750024D01*
X121753177Y36798687D01*
X121920000Y36815117D01*
X122086822Y36798687D01*
X122086822Y36798687D01*
G37*
G36*
X111926822Y36798687D02*
G01*
X112087241Y36750024D01*
X112235077Y36671005D01*
X112364659Y36564659D01*
X112471004Y36435078D01*
X112471005Y36435076D01*
X112550024Y36287242D01*
X112598687Y36126823D01*
X112611000Y36001804D01*
X112611000Y35118197D01*
X112598687Y34993178D01*
X112550024Y34832758D01*
X112536374Y34807221D01*
X112471004Y34684922D01*
X112364659Y34555341D01*
X112235078Y34448996D01*
X112235076Y34448995D01*
X112087242Y34369976D01*
X111926823Y34321313D01*
X111760000Y34304883D01*
X111593178Y34321313D01*
X111432759Y34369976D01*
X111284925Y34448995D01*
X111284923Y34448996D01*
X111155342Y34555341D01*
X111048997Y34684922D01*
X110983627Y34807221D01*
X110969977Y34832758D01*
X110921314Y34993177D01*
X110909000Y35118197D01*
X110909000Y36001803D01*
X110921313Y36126822D01*
X110969976Y36287241D01*
X111048995Y36435077D01*
X111155341Y36564659D01*
X111263439Y36653373D01*
X111284922Y36671004D01*
X111300094Y36679114D01*
X111432758Y36750024D01*
X111593177Y36798687D01*
X111760000Y36815117D01*
X111926822Y36798687D01*
X111926822Y36798687D01*
G37*
G36*
X109386822Y36798687D02*
G01*
X109547241Y36750024D01*
X109695077Y36671005D01*
X109824659Y36564659D01*
X109931004Y36435078D01*
X109931005Y36435076D01*
X110010024Y36287242D01*
X110058687Y36126823D01*
X110071000Y36001804D01*
X110071000Y35118197D01*
X110058687Y34993178D01*
X110010024Y34832758D01*
X109996374Y34807221D01*
X109931004Y34684922D01*
X109824659Y34555341D01*
X109695078Y34448996D01*
X109695076Y34448995D01*
X109547242Y34369976D01*
X109386823Y34321313D01*
X109220000Y34304883D01*
X109053178Y34321313D01*
X108892759Y34369976D01*
X108744925Y34448995D01*
X108744923Y34448996D01*
X108615342Y34555341D01*
X108508997Y34684922D01*
X108443627Y34807221D01*
X108429977Y34832758D01*
X108381314Y34993177D01*
X108369000Y35118197D01*
X108369000Y36001803D01*
X108381313Y36126822D01*
X108429976Y36287241D01*
X108508995Y36435077D01*
X108615341Y36564659D01*
X108723439Y36653373D01*
X108744922Y36671004D01*
X108760094Y36679114D01*
X108892758Y36750024D01*
X109053177Y36798687D01*
X109220000Y36815117D01*
X109386822Y36798687D01*
X109386822Y36798687D01*
G37*
G36*
X106846822Y36798687D02*
G01*
X107007241Y36750024D01*
X107155077Y36671005D01*
X107284659Y36564659D01*
X107391004Y36435078D01*
X107391005Y36435076D01*
X107470024Y36287242D01*
X107518687Y36126823D01*
X107531000Y36001804D01*
X107531000Y35118197D01*
X107518687Y34993178D01*
X107470024Y34832758D01*
X107456374Y34807221D01*
X107391004Y34684922D01*
X107284659Y34555341D01*
X107155078Y34448996D01*
X107155076Y34448995D01*
X107007242Y34369976D01*
X106846823Y34321313D01*
X106680000Y34304883D01*
X106513178Y34321313D01*
X106352759Y34369976D01*
X106204925Y34448995D01*
X106204923Y34448996D01*
X106075342Y34555341D01*
X105968997Y34684922D01*
X105903627Y34807221D01*
X105889977Y34832758D01*
X105841314Y34993177D01*
X105829000Y35118197D01*
X105829000Y36001803D01*
X105841313Y36126822D01*
X105889976Y36287241D01*
X105968995Y36435077D01*
X106075341Y36564659D01*
X106183439Y36653373D01*
X106204922Y36671004D01*
X106220094Y36679114D01*
X106352758Y36750024D01*
X106513177Y36798687D01*
X106680000Y36815117D01*
X106846822Y36798687D01*
X106846822Y36798687D01*
G37*
G36*
X96686822Y36798687D02*
G01*
X96847241Y36750024D01*
X96995077Y36671005D01*
X97124659Y36564659D01*
X97231004Y36435078D01*
X97231005Y36435076D01*
X97310024Y36287242D01*
X97358687Y36126823D01*
X97371000Y36001804D01*
X97371000Y35118197D01*
X97358687Y34993178D01*
X97310024Y34832758D01*
X97296374Y34807221D01*
X97231004Y34684922D01*
X97124659Y34555341D01*
X96995078Y34448996D01*
X96995076Y34448995D01*
X96847242Y34369976D01*
X96686823Y34321313D01*
X96520000Y34304883D01*
X96353178Y34321313D01*
X96192759Y34369976D01*
X96044925Y34448995D01*
X96044923Y34448996D01*
X95915342Y34555341D01*
X95808997Y34684922D01*
X95743627Y34807221D01*
X95729977Y34832758D01*
X95681314Y34993177D01*
X95669000Y35118197D01*
X95669000Y36001803D01*
X95681313Y36126822D01*
X95729976Y36287241D01*
X95808995Y36435077D01*
X95915341Y36564659D01*
X96023439Y36653373D01*
X96044922Y36671004D01*
X96060094Y36679114D01*
X96192758Y36750024D01*
X96353177Y36798687D01*
X96520000Y36815117D01*
X96686822Y36798687D01*
X96686822Y36798687D01*
G37*
G36*
X99226822Y36798687D02*
G01*
X99387241Y36750024D01*
X99535077Y36671005D01*
X99664659Y36564659D01*
X99771004Y36435078D01*
X99771005Y36435076D01*
X99850024Y36287242D01*
X99898687Y36126823D01*
X99911000Y36001804D01*
X99911000Y35118197D01*
X99898687Y34993178D01*
X99850024Y34832758D01*
X99836374Y34807221D01*
X99771004Y34684922D01*
X99664659Y34555341D01*
X99535078Y34448996D01*
X99535076Y34448995D01*
X99387242Y34369976D01*
X99226823Y34321313D01*
X99060000Y34304883D01*
X98893178Y34321313D01*
X98732759Y34369976D01*
X98584925Y34448995D01*
X98584923Y34448996D01*
X98455342Y34555341D01*
X98348997Y34684922D01*
X98283627Y34807221D01*
X98269977Y34832758D01*
X98221314Y34993177D01*
X98209000Y35118197D01*
X98209000Y36001803D01*
X98221313Y36126822D01*
X98269976Y36287241D01*
X98348995Y36435077D01*
X98455341Y36564659D01*
X98563439Y36653373D01*
X98584922Y36671004D01*
X98600094Y36679114D01*
X98732758Y36750024D01*
X98893177Y36798687D01*
X99060000Y36815117D01*
X99226822Y36798687D01*
X99226822Y36798687D01*
G37*
G36*
X101766822Y36798687D02*
G01*
X101927241Y36750024D01*
X102075077Y36671005D01*
X102204659Y36564659D01*
X102311004Y36435078D01*
X102311005Y36435076D01*
X102390024Y36287242D01*
X102438687Y36126823D01*
X102451000Y36001804D01*
X102451000Y35118197D01*
X102438687Y34993178D01*
X102390024Y34832758D01*
X102376374Y34807221D01*
X102311004Y34684922D01*
X102204659Y34555341D01*
X102075078Y34448996D01*
X102075076Y34448995D01*
X101927242Y34369976D01*
X101766823Y34321313D01*
X101600000Y34304883D01*
X101433178Y34321313D01*
X101272759Y34369976D01*
X101124925Y34448995D01*
X101124923Y34448996D01*
X100995342Y34555341D01*
X100888997Y34684922D01*
X100823627Y34807221D01*
X100809977Y34832758D01*
X100761314Y34993177D01*
X100749000Y35118197D01*
X100749000Y36001803D01*
X100761313Y36126822D01*
X100809976Y36287241D01*
X100888995Y36435077D01*
X100995341Y36564659D01*
X101103439Y36653373D01*
X101124922Y36671004D01*
X101140094Y36679114D01*
X101272758Y36750024D01*
X101433177Y36798687D01*
X101600000Y36815117D01*
X101766822Y36798687D01*
X101766822Y36798687D01*
G37*
G36*
X104306822Y36798687D02*
G01*
X104467241Y36750024D01*
X104615077Y36671005D01*
X104744659Y36564659D01*
X104851004Y36435078D01*
X104851005Y36435076D01*
X104930024Y36287242D01*
X104978687Y36126823D01*
X104991000Y36001804D01*
X104991000Y35118197D01*
X104978687Y34993178D01*
X104930024Y34832758D01*
X104916374Y34807221D01*
X104851004Y34684922D01*
X104744659Y34555341D01*
X104615078Y34448996D01*
X104615076Y34448995D01*
X104467242Y34369976D01*
X104306823Y34321313D01*
X104140000Y34304883D01*
X103973178Y34321313D01*
X103812759Y34369976D01*
X103664925Y34448995D01*
X103664923Y34448996D01*
X103535342Y34555341D01*
X103428997Y34684922D01*
X103363627Y34807221D01*
X103349977Y34832758D01*
X103301314Y34993177D01*
X103289000Y35118197D01*
X103289000Y36001803D01*
X103301313Y36126822D01*
X103349976Y36287241D01*
X103428995Y36435077D01*
X103535341Y36564659D01*
X103643439Y36653373D01*
X103664922Y36671004D01*
X103680094Y36679114D01*
X103812758Y36750024D01*
X103973177Y36798687D01*
X104140000Y36815117D01*
X104306822Y36798687D01*
X104306822Y36798687D01*
G37*
G36*
X94831000Y34309000D02*
G01*
X93129000Y34309000D01*
X93129000Y36811000D01*
X94831000Y36811000D01*
X94831000Y34309000D01*
X94831000Y34309000D01*
G37*
G36*
X120231000Y34309000D02*
G01*
X118529000Y34309000D01*
X118529000Y36811000D01*
X120231000Y36811000D01*
X120231000Y34309000D01*
X120231000Y34309000D01*
G37*
G36*
X146160442Y36454482D02*
G01*
X146226627Y36447963D01*
X146396466Y36396443D01*
X146552991Y36312778D01*
X146584106Y36287242D01*
X146690186Y36200186D01*
X146750393Y36126822D01*
X146802778Y36062991D01*
X146886443Y35906466D01*
X146937963Y35736627D01*
X146955359Y35560000D01*
X146937963Y35383373D01*
X146886443Y35213534D01*
X146802778Y35057009D01*
X146773448Y35021271D01*
X146690186Y34919814D01*
X146588729Y34836552D01*
X146552991Y34807222D01*
X146396466Y34723557D01*
X146226627Y34672037D01*
X146160443Y34665519D01*
X146094260Y34659000D01*
X146005740Y34659000D01*
X145939557Y34665519D01*
X145873373Y34672037D01*
X145703534Y34723557D01*
X145547009Y34807222D01*
X145511271Y34836552D01*
X145409814Y34919814D01*
X145326552Y35021271D01*
X145297222Y35057009D01*
X145213557Y35213534D01*
X145162037Y35383373D01*
X145144641Y35560000D01*
X145162037Y35736627D01*
X145213557Y35906466D01*
X145297222Y36062991D01*
X145349607Y36126822D01*
X145409814Y36200186D01*
X145515894Y36287242D01*
X145547009Y36312778D01*
X145703534Y36396443D01*
X145873373Y36447963D01*
X145939558Y36454482D01*
X146005740Y36461000D01*
X146094260Y36461000D01*
X146160442Y36454482D01*
X146160442Y36454482D01*
G37*
G36*
X86470443Y37724481D02*
G01*
X86536627Y37717963D01*
X86706466Y37666443D01*
X86862991Y37582778D01*
X86898729Y37553448D01*
X87000186Y37470186D01*
X87083448Y37368729D01*
X87112778Y37332991D01*
X87196443Y37176466D01*
X87247963Y37006627D01*
X87265359Y36830000D01*
X87247963Y36653373D01*
X87196443Y36483534D01*
X87112778Y36327009D01*
X87083448Y36291271D01*
X87000186Y36189814D01*
X86898729Y36106552D01*
X86862991Y36077222D01*
X86862989Y36077221D01*
X86721888Y36001800D01*
X86706466Y35993557D01*
X86536627Y35942037D01*
X86470442Y35935518D01*
X86404260Y35929000D01*
X86315740Y35929000D01*
X86249558Y35935518D01*
X86183373Y35942037D01*
X86013534Y35993557D01*
X85998113Y36001800D01*
X85857011Y36077221D01*
X85857009Y36077222D01*
X85821271Y36106552D01*
X85719814Y36189814D01*
X85636552Y36291271D01*
X85607222Y36327009D01*
X85523557Y36483534D01*
X85472037Y36653373D01*
X85454641Y36830000D01*
X85472037Y37006627D01*
X85523557Y37176466D01*
X85607222Y37332991D01*
X85636552Y37368729D01*
X85719814Y37470186D01*
X85821271Y37553448D01*
X85857009Y37582778D01*
X86013534Y37666443D01*
X86183373Y37717963D01*
X86249557Y37724481D01*
X86315740Y37731000D01*
X86404260Y37731000D01*
X86470443Y37724481D01*
X86470443Y37724481D01*
G37*
G36*
X146160443Y38994481D02*
G01*
X146226627Y38987963D01*
X146396466Y38936443D01*
X146552991Y38852778D01*
X146588729Y38823448D01*
X146690186Y38740186D01*
X146773448Y38638729D01*
X146802778Y38602991D01*
X146886443Y38446466D01*
X146937963Y38276627D01*
X146955359Y38100000D01*
X146937963Y37923373D01*
X146886443Y37753534D01*
X146802778Y37597009D01*
X146773448Y37561271D01*
X146690186Y37459814D01*
X146588729Y37376552D01*
X146552991Y37347222D01*
X146396466Y37263557D01*
X146226627Y37212037D01*
X146160442Y37205518D01*
X146094260Y37199000D01*
X146005740Y37199000D01*
X145939558Y37205518D01*
X145873373Y37212037D01*
X145703534Y37263557D01*
X145547009Y37347222D01*
X145511271Y37376552D01*
X145409814Y37459814D01*
X145326552Y37561271D01*
X145297222Y37597009D01*
X145213557Y37753534D01*
X145162037Y37923373D01*
X145144641Y38100000D01*
X145162037Y38276627D01*
X145213557Y38446466D01*
X145297222Y38602991D01*
X145326552Y38638729D01*
X145409814Y38740186D01*
X145511271Y38823448D01*
X145547009Y38852778D01*
X145703534Y38936443D01*
X145873373Y38987963D01*
X145939557Y38994481D01*
X146005740Y39001000D01*
X146094260Y39001000D01*
X146160443Y38994481D01*
X146160443Y38994481D01*
G37*
G36*
X86470443Y40264481D02*
G01*
X86536627Y40257963D01*
X86706466Y40206443D01*
X86862991Y40122778D01*
X86898729Y40093448D01*
X87000186Y40010186D01*
X87083448Y39908729D01*
X87112778Y39872991D01*
X87196443Y39716466D01*
X87247963Y39546627D01*
X87265359Y39370000D01*
X87247963Y39193373D01*
X87196443Y39023534D01*
X87112778Y38867009D01*
X87083448Y38831271D01*
X87000186Y38729814D01*
X86898729Y38646552D01*
X86862991Y38617222D01*
X86706466Y38533557D01*
X86536627Y38482037D01*
X86470443Y38475519D01*
X86404260Y38469000D01*
X86315740Y38469000D01*
X86249557Y38475519D01*
X86183373Y38482037D01*
X86013534Y38533557D01*
X85857009Y38617222D01*
X85821271Y38646552D01*
X85719814Y38729814D01*
X85636552Y38831271D01*
X85607222Y38867009D01*
X85523557Y39023534D01*
X85472037Y39193373D01*
X85454641Y39370000D01*
X85472037Y39546627D01*
X85523557Y39716466D01*
X85607222Y39872991D01*
X85636552Y39908729D01*
X85719814Y40010186D01*
X85821271Y40093448D01*
X85857009Y40122778D01*
X86013534Y40206443D01*
X86183373Y40257963D01*
X86249557Y40264481D01*
X86315740Y40271000D01*
X86404260Y40271000D01*
X86470443Y40264481D01*
X86470443Y40264481D01*
G37*
G36*
X146160442Y41534482D02*
G01*
X146226627Y41527963D01*
X146396466Y41476443D01*
X146552991Y41392778D01*
X146588729Y41363448D01*
X146690186Y41280186D01*
X146773448Y41178729D01*
X146802778Y41142991D01*
X146886443Y40986466D01*
X146937963Y40816627D01*
X146955359Y40640000D01*
X146937963Y40463373D01*
X146886443Y40293534D01*
X146802778Y40137009D01*
X146773448Y40101271D01*
X146690186Y39999814D01*
X146588729Y39916552D01*
X146552991Y39887222D01*
X146396466Y39803557D01*
X146226627Y39752037D01*
X146160442Y39745518D01*
X146094260Y39739000D01*
X146005740Y39739000D01*
X145939557Y39745519D01*
X145873373Y39752037D01*
X145703534Y39803557D01*
X145547009Y39887222D01*
X145511271Y39916552D01*
X145409814Y39999814D01*
X145326552Y40101271D01*
X145297222Y40137009D01*
X145213557Y40293534D01*
X145162037Y40463373D01*
X145144641Y40640000D01*
X145162037Y40816627D01*
X145213557Y40986466D01*
X145297222Y41142991D01*
X145326552Y41178729D01*
X145409814Y41280186D01*
X145511271Y41363448D01*
X145547009Y41392778D01*
X145703534Y41476443D01*
X145873373Y41527963D01*
X145939558Y41534482D01*
X146005740Y41541000D01*
X146094260Y41541000D01*
X146160442Y41534482D01*
X146160442Y41534482D01*
G37*
G36*
X86470443Y42804481D02*
G01*
X86536627Y42797963D01*
X86706466Y42746443D01*
X86706468Y42746442D01*
X86721893Y42738197D01*
X86862991Y42662778D01*
X86898729Y42633448D01*
X87000186Y42550186D01*
X87080139Y42452761D01*
X87112778Y42412991D01*
X87196443Y42256466D01*
X87247963Y42086627D01*
X87265359Y41910000D01*
X87247963Y41733373D01*
X87196443Y41563534D01*
X87112778Y41407009D01*
X87083448Y41371271D01*
X87000186Y41269814D01*
X86898729Y41186552D01*
X86862991Y41157222D01*
X86706466Y41073557D01*
X86536627Y41022037D01*
X86470442Y41015518D01*
X86404260Y41009000D01*
X86315740Y41009000D01*
X86249558Y41015518D01*
X86183373Y41022037D01*
X86013534Y41073557D01*
X85857009Y41157222D01*
X85821271Y41186552D01*
X85719814Y41269814D01*
X85636552Y41371271D01*
X85607222Y41407009D01*
X85523557Y41563534D01*
X85472037Y41733373D01*
X85454641Y41910000D01*
X85472037Y42086627D01*
X85523557Y42256466D01*
X85607222Y42412991D01*
X85639861Y42452761D01*
X85719814Y42550186D01*
X85821271Y42633448D01*
X85857009Y42662778D01*
X85998107Y42738197D01*
X86013532Y42746442D01*
X86013534Y42746443D01*
X86183373Y42797963D01*
X86249557Y42804481D01*
X86315740Y42811000D01*
X86404260Y42811000D01*
X86470443Y42804481D01*
X86470443Y42804481D01*
G37*
G36*
X94146822Y44418687D02*
G01*
X94307241Y44370024D01*
X94455077Y44291005D01*
X94584659Y44184659D01*
X94691004Y44055078D01*
X94691005Y44055076D01*
X94770024Y43907242D01*
X94818687Y43746823D01*
X94831000Y43621804D01*
X94831000Y42738197D01*
X94818687Y42613178D01*
X94770024Y42452758D01*
X94756374Y42427221D01*
X94691004Y42304922D01*
X94584659Y42175341D01*
X94455078Y42068996D01*
X94455076Y42068995D01*
X94307242Y41989976D01*
X94146823Y41941313D01*
X93980000Y41924883D01*
X93813178Y41941313D01*
X93652759Y41989976D01*
X93504925Y42068995D01*
X93504923Y42068996D01*
X93375342Y42175341D01*
X93268997Y42304922D01*
X93203627Y42427221D01*
X93189977Y42452758D01*
X93141314Y42613177D01*
X93129000Y42738197D01*
X93129000Y43621803D01*
X93141313Y43746822D01*
X93189976Y43907241D01*
X93268995Y44055077D01*
X93375341Y44184659D01*
X93504922Y44291004D01*
X93520094Y44299114D01*
X93652758Y44370024D01*
X93813177Y44418687D01*
X93980000Y44435117D01*
X94146822Y44418687D01*
X94146822Y44418687D01*
G37*
G36*
X137326822Y44418687D02*
G01*
X137487241Y44370024D01*
X137635077Y44291005D01*
X137764659Y44184659D01*
X137871004Y44055078D01*
X137871005Y44055076D01*
X137950024Y43907242D01*
X137998687Y43746823D01*
X138011000Y43621804D01*
X138011000Y42738197D01*
X137998687Y42613178D01*
X137950024Y42452758D01*
X137936374Y42427221D01*
X137871004Y42304922D01*
X137764659Y42175341D01*
X137635078Y42068996D01*
X137635076Y42068995D01*
X137487242Y41989976D01*
X137326823Y41941313D01*
X137160000Y41924883D01*
X136993178Y41941313D01*
X136832759Y41989976D01*
X136684925Y42068995D01*
X136684923Y42068996D01*
X136555342Y42175341D01*
X136448997Y42304922D01*
X136383627Y42427221D01*
X136369977Y42452758D01*
X136321314Y42613177D01*
X136309000Y42738197D01*
X136309000Y43621803D01*
X136321313Y43746822D01*
X136369976Y43907241D01*
X136448995Y44055077D01*
X136555341Y44184659D01*
X136684922Y44291004D01*
X136700094Y44299114D01*
X136832758Y44370024D01*
X136993177Y44418687D01*
X137160000Y44435117D01*
X137326822Y44418687D01*
X137326822Y44418687D01*
G37*
G36*
X96686822Y44418687D02*
G01*
X96847241Y44370024D01*
X96995077Y44291005D01*
X97124659Y44184659D01*
X97231004Y44055078D01*
X97231005Y44055076D01*
X97310024Y43907242D01*
X97358687Y43746823D01*
X97371000Y43621804D01*
X97371000Y42738197D01*
X97358687Y42613178D01*
X97310024Y42452758D01*
X97296374Y42427221D01*
X97231004Y42304922D01*
X97124659Y42175341D01*
X96995078Y42068996D01*
X96995076Y42068995D01*
X96847242Y41989976D01*
X96686823Y41941313D01*
X96520000Y41924883D01*
X96353178Y41941313D01*
X96192759Y41989976D01*
X96044925Y42068995D01*
X96044923Y42068996D01*
X95915342Y42175341D01*
X95808997Y42304922D01*
X95743627Y42427221D01*
X95729977Y42452758D01*
X95681314Y42613177D01*
X95669000Y42738197D01*
X95669000Y43621803D01*
X95681313Y43746822D01*
X95729976Y43907241D01*
X95808995Y44055077D01*
X95915341Y44184659D01*
X96044922Y44291004D01*
X96060094Y44299114D01*
X96192758Y44370024D01*
X96353177Y44418687D01*
X96520000Y44435117D01*
X96686822Y44418687D01*
X96686822Y44418687D01*
G37*
G36*
X99226822Y44418687D02*
G01*
X99387241Y44370024D01*
X99535077Y44291005D01*
X99664659Y44184659D01*
X99771004Y44055078D01*
X99771005Y44055076D01*
X99850024Y43907242D01*
X99898687Y43746823D01*
X99911000Y43621804D01*
X99911000Y42738197D01*
X99898687Y42613178D01*
X99850024Y42452758D01*
X99836374Y42427221D01*
X99771004Y42304922D01*
X99664659Y42175341D01*
X99535078Y42068996D01*
X99535076Y42068995D01*
X99387242Y41989976D01*
X99226823Y41941313D01*
X99060000Y41924883D01*
X98893178Y41941313D01*
X98732759Y41989976D01*
X98584925Y42068995D01*
X98584923Y42068996D01*
X98455342Y42175341D01*
X98348997Y42304922D01*
X98283627Y42427221D01*
X98269977Y42452758D01*
X98221314Y42613177D01*
X98209000Y42738197D01*
X98209000Y43621803D01*
X98221313Y43746822D01*
X98269976Y43907241D01*
X98348995Y44055077D01*
X98455341Y44184659D01*
X98584922Y44291004D01*
X98600094Y44299114D01*
X98732758Y44370024D01*
X98893177Y44418687D01*
X99060000Y44435117D01*
X99226822Y44418687D01*
X99226822Y44418687D01*
G37*
G36*
X134786822Y44418687D02*
G01*
X134947241Y44370024D01*
X135095077Y44291005D01*
X135224659Y44184659D01*
X135331004Y44055078D01*
X135331005Y44055076D01*
X135410024Y43907242D01*
X135458687Y43746823D01*
X135471000Y43621804D01*
X135471000Y42738197D01*
X135458687Y42613178D01*
X135410024Y42452758D01*
X135396374Y42427221D01*
X135331004Y42304922D01*
X135224659Y42175341D01*
X135095078Y42068996D01*
X135095076Y42068995D01*
X134947242Y41989976D01*
X134786823Y41941313D01*
X134620000Y41924883D01*
X134453178Y41941313D01*
X134292759Y41989976D01*
X134144925Y42068995D01*
X134144923Y42068996D01*
X134015342Y42175341D01*
X133908997Y42304922D01*
X133843627Y42427221D01*
X133829977Y42452758D01*
X133781314Y42613177D01*
X133769000Y42738197D01*
X133769000Y43621803D01*
X133781313Y43746822D01*
X133829976Y43907241D01*
X133908995Y44055077D01*
X134015341Y44184659D01*
X134144922Y44291004D01*
X134160094Y44299114D01*
X134292758Y44370024D01*
X134453177Y44418687D01*
X134620000Y44435117D01*
X134786822Y44418687D01*
X134786822Y44418687D01*
G37*
G36*
X101766822Y44418687D02*
G01*
X101927241Y44370024D01*
X102075077Y44291005D01*
X102204659Y44184659D01*
X102311004Y44055078D01*
X102311005Y44055076D01*
X102390024Y43907242D01*
X102438687Y43746823D01*
X102451000Y43621804D01*
X102451000Y42738197D01*
X102438687Y42613178D01*
X102390024Y42452758D01*
X102376374Y42427221D01*
X102311004Y42304922D01*
X102204659Y42175341D01*
X102075078Y42068996D01*
X102075076Y42068995D01*
X101927242Y41989976D01*
X101766823Y41941313D01*
X101600000Y41924883D01*
X101433178Y41941313D01*
X101272759Y41989976D01*
X101124925Y42068995D01*
X101124923Y42068996D01*
X100995342Y42175341D01*
X100888997Y42304922D01*
X100823627Y42427221D01*
X100809977Y42452758D01*
X100761314Y42613177D01*
X100749000Y42738197D01*
X100749000Y43621803D01*
X100761313Y43746822D01*
X100809976Y43907241D01*
X100888995Y44055077D01*
X100995341Y44184659D01*
X101124922Y44291004D01*
X101140094Y44299114D01*
X101272758Y44370024D01*
X101433177Y44418687D01*
X101600000Y44435117D01*
X101766822Y44418687D01*
X101766822Y44418687D01*
G37*
G36*
X132246822Y44418687D02*
G01*
X132407241Y44370024D01*
X132555077Y44291005D01*
X132684659Y44184659D01*
X132791004Y44055078D01*
X132791005Y44055076D01*
X132870024Y43907242D01*
X132918687Y43746823D01*
X132931000Y43621804D01*
X132931000Y42738197D01*
X132918687Y42613178D01*
X132870024Y42452758D01*
X132856374Y42427221D01*
X132791004Y42304922D01*
X132684659Y42175341D01*
X132555078Y42068996D01*
X132555076Y42068995D01*
X132407242Y41989976D01*
X132246823Y41941313D01*
X132080000Y41924883D01*
X131913178Y41941313D01*
X131752759Y41989976D01*
X131604925Y42068995D01*
X131604923Y42068996D01*
X131475342Y42175341D01*
X131368997Y42304922D01*
X131303627Y42427221D01*
X131289977Y42452758D01*
X131241314Y42613177D01*
X131229000Y42738197D01*
X131229000Y43621803D01*
X131241313Y43746822D01*
X131289976Y43907241D01*
X131368995Y44055077D01*
X131475341Y44184659D01*
X131604922Y44291004D01*
X131620094Y44299114D01*
X131752758Y44370024D01*
X131913177Y44418687D01*
X132080000Y44435117D01*
X132246822Y44418687D01*
X132246822Y44418687D01*
G37*
G36*
X104306822Y44418687D02*
G01*
X104467241Y44370024D01*
X104615077Y44291005D01*
X104744659Y44184659D01*
X104851004Y44055078D01*
X104851005Y44055076D01*
X104930024Y43907242D01*
X104978687Y43746823D01*
X104991000Y43621804D01*
X104991000Y42738197D01*
X104978687Y42613178D01*
X104930024Y42452758D01*
X104916374Y42427221D01*
X104851004Y42304922D01*
X104744659Y42175341D01*
X104615078Y42068996D01*
X104615076Y42068995D01*
X104467242Y41989976D01*
X104306823Y41941313D01*
X104140000Y41924883D01*
X103973178Y41941313D01*
X103812759Y41989976D01*
X103664925Y42068995D01*
X103664923Y42068996D01*
X103535342Y42175341D01*
X103428997Y42304922D01*
X103363627Y42427221D01*
X103349977Y42452758D01*
X103301314Y42613177D01*
X103289000Y42738197D01*
X103289000Y43621803D01*
X103301313Y43746822D01*
X103349976Y43907241D01*
X103428995Y44055077D01*
X103535341Y44184659D01*
X103664922Y44291004D01*
X103680094Y44299114D01*
X103812758Y44370024D01*
X103973177Y44418687D01*
X104140000Y44435117D01*
X104306822Y44418687D01*
X104306822Y44418687D01*
G37*
G36*
X129706822Y44418687D02*
G01*
X129867241Y44370024D01*
X130015077Y44291005D01*
X130144659Y44184659D01*
X130251004Y44055078D01*
X130251005Y44055076D01*
X130330024Y43907242D01*
X130378687Y43746823D01*
X130391000Y43621804D01*
X130391000Y42738197D01*
X130378687Y42613178D01*
X130330024Y42452758D01*
X130316374Y42427221D01*
X130251004Y42304922D01*
X130144659Y42175341D01*
X130015078Y42068996D01*
X130015076Y42068995D01*
X129867242Y41989976D01*
X129706823Y41941313D01*
X129540000Y41924883D01*
X129373178Y41941313D01*
X129212759Y41989976D01*
X129064925Y42068995D01*
X129064923Y42068996D01*
X128935342Y42175341D01*
X128828997Y42304922D01*
X128763627Y42427221D01*
X128749977Y42452758D01*
X128701314Y42613177D01*
X128689000Y42738197D01*
X128689000Y43621803D01*
X128701313Y43746822D01*
X128749976Y43907241D01*
X128828995Y44055077D01*
X128935341Y44184659D01*
X129064922Y44291004D01*
X129080094Y44299114D01*
X129212758Y44370024D01*
X129373177Y44418687D01*
X129540000Y44435117D01*
X129706822Y44418687D01*
X129706822Y44418687D01*
G37*
G36*
X106846822Y44418687D02*
G01*
X107007241Y44370024D01*
X107155077Y44291005D01*
X107284659Y44184659D01*
X107391004Y44055078D01*
X107391005Y44055076D01*
X107470024Y43907242D01*
X107518687Y43746823D01*
X107531000Y43621804D01*
X107531000Y42738197D01*
X107518687Y42613178D01*
X107470024Y42452758D01*
X107456374Y42427221D01*
X107391004Y42304922D01*
X107284659Y42175341D01*
X107155078Y42068996D01*
X107155076Y42068995D01*
X107007242Y41989976D01*
X106846823Y41941313D01*
X106680000Y41924883D01*
X106513178Y41941313D01*
X106352759Y41989976D01*
X106204925Y42068995D01*
X106204923Y42068996D01*
X106075342Y42175341D01*
X105968997Y42304922D01*
X105903627Y42427221D01*
X105889977Y42452758D01*
X105841314Y42613177D01*
X105829000Y42738197D01*
X105829000Y43621803D01*
X105841313Y43746822D01*
X105889976Y43907241D01*
X105968995Y44055077D01*
X106075341Y44184659D01*
X106204922Y44291004D01*
X106220094Y44299114D01*
X106352758Y44370024D01*
X106513177Y44418687D01*
X106680000Y44435117D01*
X106846822Y44418687D01*
X106846822Y44418687D01*
G37*
G36*
X127166822Y44418687D02*
G01*
X127327241Y44370024D01*
X127475077Y44291005D01*
X127604659Y44184659D01*
X127711004Y44055078D01*
X127711005Y44055076D01*
X127790024Y43907242D01*
X127838687Y43746823D01*
X127851000Y43621804D01*
X127851000Y42738197D01*
X127838687Y42613178D01*
X127790024Y42452758D01*
X127776374Y42427221D01*
X127711004Y42304922D01*
X127604659Y42175341D01*
X127475078Y42068996D01*
X127475076Y42068995D01*
X127327242Y41989976D01*
X127166823Y41941313D01*
X127000000Y41924883D01*
X126833178Y41941313D01*
X126672759Y41989976D01*
X126524925Y42068995D01*
X126524923Y42068996D01*
X126395342Y42175341D01*
X126288997Y42304922D01*
X126223627Y42427221D01*
X126209977Y42452758D01*
X126161314Y42613177D01*
X126149000Y42738197D01*
X126149000Y43621803D01*
X126161313Y43746822D01*
X126209976Y43907241D01*
X126288995Y44055077D01*
X126395341Y44184659D01*
X126524922Y44291004D01*
X126540094Y44299114D01*
X126672758Y44370024D01*
X126833177Y44418687D01*
X127000000Y44435117D01*
X127166822Y44418687D01*
X127166822Y44418687D01*
G37*
G36*
X124626822Y44418687D02*
G01*
X124787241Y44370024D01*
X124935077Y44291005D01*
X125064659Y44184659D01*
X125171004Y44055078D01*
X125171005Y44055076D01*
X125250024Y43907242D01*
X125298687Y43746823D01*
X125311000Y43621804D01*
X125311000Y42738197D01*
X125298687Y42613178D01*
X125250024Y42452758D01*
X125236374Y42427221D01*
X125171004Y42304922D01*
X125064659Y42175341D01*
X124935078Y42068996D01*
X124935076Y42068995D01*
X124787242Y41989976D01*
X124626823Y41941313D01*
X124460000Y41924883D01*
X124293178Y41941313D01*
X124132759Y41989976D01*
X123984925Y42068995D01*
X123984923Y42068996D01*
X123855342Y42175341D01*
X123748997Y42304922D01*
X123683627Y42427221D01*
X123669977Y42452758D01*
X123621314Y42613177D01*
X123609000Y42738197D01*
X123609000Y43621803D01*
X123621313Y43746822D01*
X123669976Y43907241D01*
X123748995Y44055077D01*
X123855341Y44184659D01*
X123984922Y44291004D01*
X124000094Y44299114D01*
X124132758Y44370024D01*
X124293177Y44418687D01*
X124460000Y44435117D01*
X124626822Y44418687D01*
X124626822Y44418687D01*
G37*
G36*
X111926822Y44418687D02*
G01*
X112087241Y44370024D01*
X112235077Y44291005D01*
X112364659Y44184659D01*
X112471004Y44055078D01*
X112471005Y44055076D01*
X112550024Y43907242D01*
X112598687Y43746823D01*
X112611000Y43621804D01*
X112611000Y42738197D01*
X112598687Y42613178D01*
X112550024Y42452758D01*
X112536374Y42427221D01*
X112471004Y42304922D01*
X112364659Y42175341D01*
X112235078Y42068996D01*
X112235076Y42068995D01*
X112087242Y41989976D01*
X111926823Y41941313D01*
X111760000Y41924883D01*
X111593178Y41941313D01*
X111432759Y41989976D01*
X111284925Y42068995D01*
X111284923Y42068996D01*
X111155342Y42175341D01*
X111048997Y42304922D01*
X110983627Y42427221D01*
X110969977Y42452758D01*
X110921314Y42613177D01*
X110909000Y42738197D01*
X110909000Y43621803D01*
X110921313Y43746822D01*
X110969976Y43907241D01*
X111048995Y44055077D01*
X111155341Y44184659D01*
X111284922Y44291004D01*
X111300094Y44299114D01*
X111432758Y44370024D01*
X111593177Y44418687D01*
X111760000Y44435117D01*
X111926822Y44418687D01*
X111926822Y44418687D01*
G37*
G36*
X122086822Y44418687D02*
G01*
X122247241Y44370024D01*
X122395077Y44291005D01*
X122524659Y44184659D01*
X122631004Y44055078D01*
X122631005Y44055076D01*
X122710024Y43907242D01*
X122758687Y43746823D01*
X122771000Y43621804D01*
X122771000Y42738197D01*
X122758687Y42613178D01*
X122710024Y42452758D01*
X122696374Y42427221D01*
X122631004Y42304922D01*
X122524659Y42175341D01*
X122395078Y42068996D01*
X122395076Y42068995D01*
X122247242Y41989976D01*
X122086823Y41941313D01*
X121920000Y41924883D01*
X121753178Y41941313D01*
X121592759Y41989976D01*
X121444925Y42068995D01*
X121444923Y42068996D01*
X121315342Y42175341D01*
X121208997Y42304922D01*
X121143627Y42427221D01*
X121129977Y42452758D01*
X121081314Y42613177D01*
X121069000Y42738197D01*
X121069000Y43621803D01*
X121081313Y43746822D01*
X121129976Y43907241D01*
X121208995Y44055077D01*
X121315341Y44184659D01*
X121444922Y44291004D01*
X121460094Y44299114D01*
X121592758Y44370024D01*
X121753177Y44418687D01*
X121920000Y44435117D01*
X122086822Y44418687D01*
X122086822Y44418687D01*
G37*
G36*
X119546822Y44418687D02*
G01*
X119707241Y44370024D01*
X119855077Y44291005D01*
X119984659Y44184659D01*
X120091004Y44055078D01*
X120091005Y44055076D01*
X120170024Y43907242D01*
X120218687Y43746823D01*
X120231000Y43621804D01*
X120231000Y42738197D01*
X120218687Y42613178D01*
X120170024Y42452758D01*
X120156374Y42427221D01*
X120091004Y42304922D01*
X119984659Y42175341D01*
X119855078Y42068996D01*
X119855076Y42068995D01*
X119707242Y41989976D01*
X119546823Y41941313D01*
X119380000Y41924883D01*
X119213178Y41941313D01*
X119052759Y41989976D01*
X118904925Y42068995D01*
X118904923Y42068996D01*
X118775342Y42175341D01*
X118668997Y42304922D01*
X118603627Y42427221D01*
X118589977Y42452758D01*
X118541314Y42613177D01*
X118529000Y42738197D01*
X118529000Y43621803D01*
X118541313Y43746822D01*
X118589976Y43907241D01*
X118668995Y44055077D01*
X118775341Y44184659D01*
X118904922Y44291004D01*
X118920094Y44299114D01*
X119052758Y44370024D01*
X119213177Y44418687D01*
X119380000Y44435117D01*
X119546822Y44418687D01*
X119546822Y44418687D01*
G37*
G36*
X109386822Y44418687D02*
G01*
X109547241Y44370024D01*
X109695077Y44291005D01*
X109824659Y44184659D01*
X109931004Y44055078D01*
X109931005Y44055076D01*
X110010024Y43907242D01*
X110058687Y43746823D01*
X110071000Y43621804D01*
X110071000Y42738197D01*
X110058687Y42613178D01*
X110010024Y42452758D01*
X109996374Y42427221D01*
X109931004Y42304922D01*
X109824659Y42175341D01*
X109695078Y42068996D01*
X109695076Y42068995D01*
X109547242Y41989976D01*
X109386823Y41941313D01*
X109220000Y41924883D01*
X109053178Y41941313D01*
X108892759Y41989976D01*
X108744925Y42068995D01*
X108744923Y42068996D01*
X108615342Y42175341D01*
X108508997Y42304922D01*
X108443627Y42427221D01*
X108429977Y42452758D01*
X108381314Y42613177D01*
X108369000Y42738197D01*
X108369000Y43621803D01*
X108381313Y43746822D01*
X108429976Y43907241D01*
X108508995Y44055077D01*
X108615341Y44184659D01*
X108744922Y44291004D01*
X108760094Y44299114D01*
X108892758Y44370024D01*
X109053177Y44418687D01*
X109220000Y44435117D01*
X109386822Y44418687D01*
X109386822Y44418687D01*
G37*
G36*
X146160443Y44074481D02*
G01*
X146226627Y44067963D01*
X146396466Y44016443D01*
X146552991Y43932778D01*
X146584106Y43907242D01*
X146690186Y43820186D01*
X146750393Y43746822D01*
X146802778Y43682991D01*
X146886443Y43526466D01*
X146937963Y43356627D01*
X146955359Y43180000D01*
X146937963Y43003373D01*
X146886443Y42833534D01*
X146802778Y42677009D01*
X146773448Y42641271D01*
X146690186Y42539814D01*
X146588729Y42456552D01*
X146552991Y42427222D01*
X146396466Y42343557D01*
X146226627Y42292037D01*
X146160442Y42285518D01*
X146094260Y42279000D01*
X146005740Y42279000D01*
X145939557Y42285519D01*
X145873373Y42292037D01*
X145703534Y42343557D01*
X145547009Y42427222D01*
X145511271Y42456552D01*
X145409814Y42539814D01*
X145326552Y42641271D01*
X145297222Y42677009D01*
X145213557Y42833534D01*
X145162037Y43003373D01*
X145144641Y43180000D01*
X145162037Y43356627D01*
X145213557Y43526466D01*
X145297222Y43682991D01*
X145349607Y43746822D01*
X145409814Y43820186D01*
X145515894Y43907242D01*
X145547009Y43932778D01*
X145703534Y44016443D01*
X145873373Y44067963D01*
X145939557Y44074481D01*
X146005740Y44081000D01*
X146094260Y44081000D01*
X146160443Y44074481D01*
X146160443Y44074481D01*
G37*
G36*
X87261000Y43549000D02*
G01*
X85459000Y43549000D01*
X85459000Y45351000D01*
X87261000Y45351000D01*
X87261000Y43549000D01*
X87261000Y43549000D01*
G37*
G36*
X146951000Y44819000D02*
G01*
X145149000Y44819000D01*
X145149000Y46621000D01*
X146951000Y46621000D01*
X146951000Y44819000D01*
X146951000Y44819000D01*
G37*
G36*
X84703256Y52916702D02*
G01*
X84809579Y52895553D01*
X85110042Y52771097D01*
X85380451Y52590415D01*
X85610415Y52360451D01*
X85791097Y52090042D01*
X85915553Y51789579D01*
X85979000Y51470609D01*
X85979000Y51145391D01*
X85915553Y50826421D01*
X85791097Y50525958D01*
X85610415Y50255549D01*
X85380451Y50025585D01*
X85110042Y49844903D01*
X84809579Y49720447D01*
X84703256Y49699298D01*
X84490611Y49657000D01*
X84165389Y49657000D01*
X83952744Y49699298D01*
X83846421Y49720447D01*
X83545958Y49844903D01*
X83275549Y50025585D01*
X83045585Y50255549D01*
X82864903Y50525958D01*
X82740447Y50826421D01*
X82677000Y51145391D01*
X82677000Y51470609D01*
X82740447Y51789579D01*
X82864903Y52090042D01*
X83045585Y52360451D01*
X83275549Y52590415D01*
X83545958Y52771097D01*
X83846421Y52895553D01*
X83952744Y52916702D01*
X84165389Y52959000D01*
X84490611Y52959000D01*
X84703256Y52916702D01*
X84703256Y52916702D01*
G37*
G36*
X148203256Y52916702D02*
G01*
X148309579Y52895553D01*
X148610042Y52771097D01*
X148880451Y52590415D01*
X149110415Y52360451D01*
X149291097Y52090042D01*
X149415553Y51789579D01*
X149479000Y51470609D01*
X149479000Y51145391D01*
X149415553Y50826421D01*
X149291097Y50525958D01*
X149110415Y50255549D01*
X148880451Y50025585D01*
X148610042Y49844903D01*
X148309579Y49720447D01*
X148203256Y49699298D01*
X147990611Y49657000D01*
X147665389Y49657000D01*
X147452744Y49699298D01*
X147346421Y49720447D01*
X147045958Y49844903D01*
X146775549Y50025585D01*
X146545585Y50255549D01*
X146364903Y50525958D01*
X146240447Y50826421D01*
X146177000Y51145391D01*
X146177000Y51470609D01*
X146240447Y51789579D01*
X146364903Y52090042D01*
X146545585Y52360451D01*
X146775549Y52590415D01*
X147045958Y52771097D01*
X147346421Y52895553D01*
X147452744Y52916702D01*
X147665389Y52959000D01*
X147990611Y52959000D01*
X148203256Y52916702D01*
X148203256Y52916702D01*
G37*
M02*
