%TF.GenerationSoftware,KiCad,Pcbnew,(5.1.2-1)-1*%
%TF.CreationDate,2023-02-25T22:44:41-05:00*%
%TF.ProjectId,7seg,37736567-2e6b-4696-9361-645f70636258,rev?*%
%TF.SameCoordinates,Original*%
%TF.FileFunction,Legend,Bot*%
%TF.FilePolarity,Positive*%
%FSLAX46Y46*%
G04 Gerber Fmt 4.6, Leading zero omitted, Abs format (unit mm)*
G04 Created by KiCad (PCBNEW (5.1.2-1)-1) date 2023-02-25 22:44:41*
%MOMM*%
%LPD*%
G04 APERTURE LIST*
%ADD10C,0.150000*%
%ADD11C,3.302000*%
%ADD12O,1.702000X2.502000*%
%ADD13R,1.702000X2.502000*%
%ADD14O,1.802000X1.802000*%
%ADD15R,1.802000X1.802000*%
G04 APERTURE END LIST*
D10*
X100868952Y25201619D02*
X100868952Y26201619D01*
X100535619Y25487333D01*
X100202285Y26201619D01*
X100202285Y25201619D01*
X99297523Y25201619D02*
X99297523Y25725428D01*
X99345142Y25820666D01*
X99440380Y25868285D01*
X99630857Y25868285D01*
X99726095Y25820666D01*
X99297523Y25249238D02*
X99392761Y25201619D01*
X99630857Y25201619D01*
X99726095Y25249238D01*
X99773714Y25344476D01*
X99773714Y25439714D01*
X99726095Y25534952D01*
X99630857Y25582571D01*
X99392761Y25582571D01*
X99297523Y25630190D01*
X98392761Y25201619D02*
X98392761Y26201619D01*
X98392761Y25249238D02*
X98488000Y25201619D01*
X98678476Y25201619D01*
X98773714Y25249238D01*
X98821333Y25296857D01*
X98868952Y25392095D01*
X98868952Y25677809D01*
X98821333Y25773047D01*
X98773714Y25820666D01*
X98678476Y25868285D01*
X98488000Y25868285D01*
X98392761Y25820666D01*
X97535619Y25249238D02*
X97630857Y25201619D01*
X97821333Y25201619D01*
X97916571Y25249238D01*
X97964190Y25344476D01*
X97964190Y25725428D01*
X97916571Y25820666D01*
X97821333Y25868285D01*
X97630857Y25868285D01*
X97535619Y25820666D01*
X97488000Y25725428D01*
X97488000Y25630190D01*
X97964190Y25534952D01*
X96297523Y25201619D02*
X96297523Y26201619D01*
X96297523Y25820666D02*
X96202285Y25868285D01*
X96011809Y25868285D01*
X95916571Y25820666D01*
X95868952Y25773047D01*
X95821333Y25677809D01*
X95821333Y25392095D01*
X95868952Y25296857D01*
X95916571Y25249238D01*
X96011809Y25201619D01*
X96202285Y25201619D01*
X96297523Y25249238D01*
X95488000Y25868285D02*
X95249904Y25201619D01*
X95011809Y25868285D02*
X95249904Y25201619D01*
X95345142Y24963523D01*
X95392761Y24915904D01*
X95488000Y24868285D01*
X94011809Y25868285D02*
X93630857Y25868285D01*
X93868952Y25201619D02*
X93868952Y26058761D01*
X93821333Y26154000D01*
X93726095Y26201619D01*
X93630857Y26201619D01*
X93154666Y25201619D02*
X93249904Y25249238D01*
X93297523Y25344476D01*
X93297523Y26201619D01*
X92868952Y25868285D02*
X92630857Y25201619D01*
X92392761Y25868285D02*
X92630857Y25201619D01*
X92726095Y24963523D01*
X92773714Y24915904D01*
X92868952Y24868285D01*
X92011809Y25868285D02*
X92011809Y25201619D01*
X92011809Y25773047D02*
X91964190Y25820666D01*
X91868952Y25868285D01*
X91726095Y25868285D01*
X91630857Y25820666D01*
X91583238Y25725428D01*
X91583238Y25201619D01*
X91107047Y25868285D02*
X91107047Y25201619D01*
X91107047Y25773047D02*
X91059428Y25820666D01*
X90964190Y25868285D01*
X90821333Y25868285D01*
X90726095Y25820666D01*
X90678476Y25725428D01*
X90678476Y25201619D01*
X89773714Y25868285D02*
X89773714Y25058761D01*
X89821333Y24963523D01*
X89868952Y24915904D01*
X89964190Y24868285D01*
X90107047Y24868285D01*
X90202285Y24915904D01*
X89773714Y25249238D02*
X89868952Y25201619D01*
X90059428Y25201619D01*
X90154666Y25249238D01*
X90202285Y25296857D01*
X90249904Y25392095D01*
X90249904Y25677809D01*
X90202285Y25773047D01*
X90154666Y25820666D01*
X90059428Y25868285D01*
X89868952Y25868285D01*
X89773714Y25820666D01*
X88868952Y25868285D02*
X88868952Y25201619D01*
X89297523Y25868285D02*
X89297523Y25344476D01*
X89249904Y25249238D01*
X89154666Y25201619D01*
X89011809Y25201619D01*
X88916571Y25249238D01*
X88868952Y25296857D01*
X88488000Y25868285D02*
X88249904Y25201619D01*
X88011809Y25868285D02*
X88249904Y25201619D01*
X88345142Y24963523D01*
X88392761Y24915904D01*
X88488000Y24868285D01*
%LPC*%
D11*
X147828000Y51308000D03*
X84328000Y51308000D03*
X84328000Y26670000D03*
X148082000Y26670000D03*
D12*
X119380000Y43180000D03*
X137160000Y35560000D03*
X121920000Y43180000D03*
X134620000Y35560000D03*
X124460000Y43180000D03*
X132080000Y35560000D03*
X127000000Y43180000D03*
X129540000Y35560000D03*
X129540000Y43180000D03*
X127000000Y35560000D03*
X132080000Y43180000D03*
X124460000Y35560000D03*
X134620000Y43180000D03*
X121920000Y35560000D03*
X137160000Y43180000D03*
D13*
X119380000Y35560000D03*
D12*
X93980000Y43180000D03*
X111760000Y35560000D03*
X96520000Y43180000D03*
X109220000Y35560000D03*
X99060000Y43180000D03*
X106680000Y35560000D03*
X101600000Y43180000D03*
X104140000Y35560000D03*
X104140000Y43180000D03*
X101600000Y35560000D03*
X106680000Y43180000D03*
X99060000Y35560000D03*
X109220000Y43180000D03*
X96520000Y35560000D03*
X111760000Y43180000D03*
D13*
X93980000Y35560000D03*
D14*
X146050000Y35560000D03*
X146050000Y38100000D03*
X146050000Y40640000D03*
X146050000Y43180000D03*
D15*
X146050000Y45720000D03*
D14*
X134620000Y29210000D03*
X132080000Y29210000D03*
X129540000Y29210000D03*
X127000000Y29210000D03*
X124460000Y29210000D03*
X121920000Y29210000D03*
X119380000Y29210000D03*
D15*
X116840000Y29210000D03*
D14*
X109220000Y29210000D03*
X106680000Y29210000D03*
X104140000Y29210000D03*
X101600000Y29210000D03*
X99060000Y29210000D03*
X96520000Y29210000D03*
X93980000Y29210000D03*
D15*
X91440000Y29210000D03*
D14*
X86360000Y34290000D03*
X86360000Y36830000D03*
X86360000Y39370000D03*
X86360000Y41910000D03*
D15*
X86360000Y44450000D03*
M02*
