M48
; DRILL file {KiCad (5.1.2-1)-1} date Saturday, February 25, 2023 at 10:47:12 PM
; FORMAT={-:-/ absolute / metric / decimal}
; #@! TF.CreationDate,2023-02-25T22:47:12-05:00
; #@! TF.GenerationSoftware,Kicad,Pcbnew,(5.1.2-1)-1
; #@! TF.FileFunction,Plated,1,2,PTH
FMAT,2
METRIC
T1C0.400
T2C0.800
T3C1.000
%
G90
G05
T1
X91.44Y40.64
X113.538Y48.006
X116.84Y40.64
X129.54Y46.482
T2
X119.38Y43.18
X119.38Y35.56
X121.92Y43.18
X121.92Y35.56
X124.46Y43.18
X124.46Y35.56
X127.0Y43.18
X127.0Y35.56
X129.54Y43.18
X129.54Y35.56
X132.08Y43.18
X132.08Y35.56
X134.62Y43.18
X134.62Y35.56
X137.16Y43.18
X137.16Y35.56
X93.98Y43.18
X93.98Y35.56
X96.52Y43.18
X96.52Y35.56
X99.06Y43.18
X99.06Y35.56
X101.6Y43.18
X101.6Y35.56
X104.14Y43.18
X104.14Y35.56
X106.68Y43.18
X106.68Y35.56
X109.22Y43.18
X109.22Y35.56
X111.76Y43.18
X111.76Y35.56
T3
X146.05Y45.72
X146.05Y43.18
X146.05Y40.64
X146.05Y38.1
X146.05Y35.56
X116.84Y29.21
X119.38Y29.21
X121.92Y29.21
X124.46Y29.21
X127.0Y29.21
X129.54Y29.21
X132.08Y29.21
X134.62Y29.21
X86.36Y44.45
X86.36Y41.91
X86.36Y39.37
X86.36Y36.83
X86.36Y34.29
X91.44Y29.21
X93.98Y29.21
X96.52Y29.21
X99.06Y29.21
X101.6Y29.21
X104.14Y29.21
X106.68Y29.21
X109.22Y29.21
T0
M30
